<svg width="782" height="246" viewBox="0 0 782 246" fill="none" xmlns="http://www.w3.org/2000/svg"><g opacity=".7" filter="url(#filter0_f)" fill="#fff"><path d="M556.876 170.292l8.647-48.428h0c2.239-12.561 9.868-25.372 20.726-34.597 10.595-9.002 24.194-14.532 38.762-13.15l-6.86 39.925a3.599 3.599 0 00-.195-.078c-.644-.234-1.493-.316-2.984-.316h-.059l-.057.006a12.237 12.237 0 00-6.551 2.869h0a12.2 12.2 0 00-3.82 6.038l-.012.042-.008.042-8.667 47.647h-38.922zm131.701-.008h-20.675l6.471-36.955h14.108c2.547 0 4.195-1.87 4.612-4.184.415-2.299-.324-5.12-2.437-7.559l-.014-.017-.015-.015a27.105 27.105 0 01-6.736-12.653h0a27.083 27.083 0 01.66-14.313 27.124 27.124 0 017.874-11.982h0a27.206 27.206 0 0112.891-6.307l.031-.006.03-.008a87.646 87.646 0 019.01-1.803h.001a57.51 57.51 0 018.351-.614h18.071l-6.295 36.003h-14.71c-1.743 0-3.559 1.296-4.17 3.277-.64 2.071.073 4.636 2.794 7.21l.001.001c6.031 5.697 9.955 15.761 9.384 25.248-.567 9.407-5.535 18.148-17.231 21.516l-.003.001a78.585 78.585 0 01-22.003 3.16zm-308.27.024l15.698-86.83.001-.005a51.042 51.042 0 0114.865-27.967 51.213 51.213 0 0128.507-13.848 40.912 40.912 0 0117.181 1.888 40.857 40.857 0 0114.872 8.824h0a40.758 40.758 0 019.877 14.176h0a40.703 40.703 0 013.111 16.986l-.001.023.001.023a48.948 48.948 0 01-.494 7.602c-.536.442-1.072.903-1.607 1.382a80.796 80.796 0 00-4.663 4.436l-.007.007-.007.008a65.834 65.834 0 00-5.079 6.166l-.009.013-.009.013a59.69 59.69 0 00-2.543 4.068c-.812 1.431-1.478 2.886-2.129 4.363-.562 1.273-.981 2.597-1.389 3.886-.084.264-.167.527-.251.787-.475 1.474-.727 2.999-.971 4.472l-.09.542-.002.016-.003.016a62.535 62.535 0 00-.359 3.371 47.072 47.072 0 01-24.599 10.377 44.645 44.645 0 01-5.769.224l7.555-41.029a9.16 9.16 0 001.569-15.18 9.193 9.193 0 00-11.471-.183 9.155 9.155 0 00-2.698 11.134 9.175 9.175 0 003.581 3.972l-7.461 41.109-.001.001-.729 3.999v.003l-.882 4.896v.002l-4.679 26.257h-38.916z" stroke="#fff" stroke-width="2"/><path fill-rule="evenodd" clip-rule="evenodd" d="M81.53 171.307H40.605L56.507 83.3a52.055 52.055 0 0115.171-28.51 52.219 52.219 0 0129.09-14.11 41.92 41.92 0 0117.619 1.933 41.866 41.866 0 0115.237 9.039 41.755 41.755 0 0110.121 14.524 41.687 41.687 0 013.191 17.404v1.248l-2.1 1.768-4.007 4-3.639 4.32-3.271 4.561-2.845 4.76-2.405 4.913-1.939 5.048-1.459 5.121-1.531 8.528a47.443 47.443 0 01-21.898 8.193 44.33 44.33 0 01-7.046.176l7.847-42.66a8.167 8.167 0 001.748-13.803 8.199 8.199 0 00-5.138-1.814h-.457a8.2 8.2 0 00-4.9 1.978 8.163 8.163 0 00-2 9.785 8.184 8.184 0 003.734 3.734l-7.615 41.812-.232 1.312-1.371 7.585-4.881 27.162z"/><path fill-rule="evenodd" clip-rule="evenodd" d="M189.827 74.085l-7.294 42.403c-1.162-.632-.946-.984-3.92-.984a11.263 11.263 0 00-9.53 8.169l-8.817 48.468h-40.927l8.817-49.604c4.601-25.627 31.06-52.045 61.671-48.452zm38.826 4.88a48.449 48.449 0 013.351-.225l-7.727 41.948a8.207 8.207 0 00-3.939 3.748 8.193 8.193 0 002.075 10.04 8.228 8.228 0 0010.267.176 8.192 8.192 0 00-1.39-13.844l7.591-41.707a42.217 42.217 0 0126.093 14.582 42.065 42.065 0 019.856 28.181 52.336 52.336 0 01-12.635 34.733 52.525 52.525 0 01-32.46 17.768 41.94 41.94 0 01-17.621-1.937 41.893 41.893 0 01-15.238-9.04 41.796 41.796 0 01-10.123-14.526 41.71 41.71 0 01-3.194-17.405 52.348 52.348 0 0112.642-34.724 52.53 52.53 0 0132.452-17.769zm143.3 92.343h-40.951l16.303-87.807h40.759l-16.111 87.807zm-40.029-34.818l7.141-40.236-14.548.144 1.002-5.44a11.203 11.203 0 013.511-5.545 11.234 11.234 0 016.02-2.632c1.86-.166 3.73.177 5.41.992l7.294-42.403c-.481-.056-2.453-.104-2.934-.144-29.993-2.617-55.667 23.386-60.195 48.596l-14.805 82.327h40.951l6.468-35.571 14.685-.088z"/><path d="M675.432 44.962l-5.174 26.877-.231 1.201 1.223-.012 8.414-.084-6.778 38.229-9.267.058-.814.006-.16.798-.801 4-.002.01-.002.01c-.267 1.488-.627 2.964-.981 4.417-.105.432-.21.862-.312 1.289-.435 1.829-.817 3.631-.859 5.211-.041 1.579.254 3.127 1.375 4.26 1.114 1.126 2.838 1.633 5.16 1.633.164 0 .928-.015 1.691-.031l.079-.001.55-.011-6.85 38.316a618.663 618.663 0 00-3.473-.038 37.633 37.633 0 01-16.756-4.097h0a37.563 37.563 0 01-13.159-11.138c-7.09-9.605-7.334-22.04-4.134-39.907l.001-.006 13.653-70.99h37.607zM559.05 118.819v.004a48.886 48.886 0 01-.785 9.492v.002l-7.76 41.991h-35.566c-24.802 0-44.862-16.279-45.152-41.9a43.6 43.6 0 015.935-20.884 43.702 43.702 0 0114.393-14.907l15.448 29.22a9.183 9.183 0 00-.622 5.537h0a9.192 9.192 0 003.098 5.233h0a9.21 9.21 0 0011.484.292 9.177 9.177 0 00-1.398-15.51h0a9.218 9.218 0 00-5.285-.924l-22.258-41.767c17.505-4.533 34.377-3.242 46.961 3.872 12.777 7.223 21.278 20.528 21.507 40.249z" stroke="#fff" stroke-width="2"/></g><g opacity=".3" filter="url(#filter1_if)" fill="#fff"><path d="M556.876 170.292l8.647-48.428h0c2.239-12.561 9.868-25.372 20.726-34.597 10.595-9.002 24.194-14.532 38.762-13.15l-6.86 39.925a3.599 3.599 0 00-.195-.078c-.644-.234-1.493-.316-2.984-.316h-.059l-.057.006a12.237 12.237 0 00-6.551 2.869h0a12.2 12.2 0 00-3.82 6.038l-.012.042-.008.042-8.667 47.647h-38.922zm131.701-.008h-20.675l6.471-36.955h14.108c2.547 0 4.195-1.87 4.612-4.184.415-2.299-.324-5.12-2.437-7.559l-.014-.017-.015-.015a27.105 27.105 0 01-6.736-12.653h0a27.083 27.083 0 01.66-14.313 27.124 27.124 0 017.874-11.982h0a27.206 27.206 0 0112.891-6.307l.031-.006.03-.008a87.646 87.646 0 019.01-1.803h.001a57.51 57.51 0 018.351-.614h18.071l-6.295 36.003h-14.71c-1.743 0-3.559 1.296-4.17 3.277-.64 2.071.073 4.636 2.794 7.21l.001.001c6.031 5.697 9.955 15.761 9.384 25.248-.567 9.407-5.535 18.148-17.231 21.516l-.003.001a78.585 78.585 0 01-22.003 3.16zm-308.27.024l15.698-86.83.001-.005a51.042 51.042 0 0114.865-27.967 51.213 51.213 0 0128.507-13.848 40.912 40.912 0 0117.181 1.888 40.857 40.857 0 0114.872 8.824h0a40.758 40.758 0 019.877 14.176h0a40.703 40.703 0 013.111 16.986l-.001.023.001.023a48.948 48.948 0 01-.494 7.602c-.536.442-1.072.903-1.607 1.382a80.796 80.796 0 00-4.663 4.436l-.007.007-.007.008a65.834 65.834 0 00-5.079 6.166l-.009.013-.009.013a59.69 59.69 0 00-2.543 4.068c-.812 1.431-1.478 2.886-2.129 4.363-.562 1.273-.981 2.597-1.389 3.886-.084.264-.167.527-.251.787-.475 1.474-.727 2.999-.971 4.472l-.09.542-.002.016-.003.016a62.535 62.535 0 00-.359 3.371 47.072 47.072 0 01-24.599 10.377 44.645 44.645 0 01-5.769.224l7.555-41.029a9.16 9.16 0 001.569-15.18 9.193 9.193 0 00-11.471-.183 9.155 9.155 0 00-2.698 11.134 9.175 9.175 0 003.581 3.972l-7.461 41.109-.001.001-.729 3.999v.003l-.882 4.896v.002l-4.679 26.257h-38.916z" stroke="#fff" stroke-width="2"/><path fill-rule="evenodd" clip-rule="evenodd" d="M81.53 171.307H40.605L56.507 83.3a52.055 52.055 0 0115.171-28.51 52.219 52.219 0 0129.09-14.11 41.92 41.92 0 0117.619 1.933 41.866 41.866 0 0115.237 9.039 41.755 41.755 0 0110.121 14.524 41.687 41.687 0 013.191 17.404v1.248l-2.1 1.768-4.007 4-3.639 4.32-3.271 4.561-2.845 4.76-2.405 4.913-1.939 5.048-1.459 5.121-1.531 8.528a47.443 47.443 0 01-21.898 8.193 44.33 44.33 0 01-7.046.176l7.847-42.66a8.167 8.167 0 001.748-13.803 8.199 8.199 0 00-5.138-1.814h-.457a8.2 8.2 0 00-4.9 1.978 8.163 8.163 0 00-2 9.785 8.184 8.184 0 003.734 3.734l-7.615 41.812-.232 1.312-1.371 7.585-4.881 27.162z"/><path fill-rule="evenodd" clip-rule="evenodd" d="M189.827 74.085l-7.294 42.403c-1.162-.632-.946-.984-3.92-.984a11.263 11.263 0 00-9.53 8.169l-8.817 48.468h-40.927l8.817-49.604c4.601-25.627 31.06-52.045 61.671-48.452zm38.826 4.88a48.449 48.449 0 013.351-.225l-7.727 41.948a8.207 8.207 0 00-3.939 3.748 8.193 8.193 0 002.075 10.04 8.228 8.228 0 0010.267.176 8.192 8.192 0 00-1.39-13.844l7.591-41.707a42.217 42.217 0 0126.093 14.582 42.065 42.065 0 019.856 28.181 52.336 52.336 0 01-12.635 34.733 52.525 52.525 0 01-32.46 17.768 41.94 41.94 0 01-17.621-1.937 41.893 41.893 0 01-15.238-9.04 41.796 41.796 0 01-10.123-14.526 41.71 41.71 0 01-3.194-17.405 52.348 52.348 0 0112.642-34.724 52.53 52.53 0 0132.452-17.769zm143.3 92.343h-40.951l16.303-87.807h40.759l-16.111 87.807zm-40.029-34.818l7.141-40.236-14.548.144 1.002-5.44a11.203 11.203 0 013.511-5.545 11.234 11.234 0 016.02-2.632c1.86-.166 3.73.177 5.41.992l7.294-42.403c-.481-.056-2.453-.104-2.934-.144-29.993-2.617-55.667 23.386-60.195 48.596l-14.805 82.327h40.951l6.468-35.571 14.685-.088z"/><path d="M675.432 44.962l-5.174 26.877-.231 1.201 1.223-.012 8.414-.084-6.778 38.229-9.267.058-.814.006-.16.798-.801 4-.002.01-.002.01c-.267 1.488-.627 2.964-.981 4.417-.105.432-.21.862-.312 1.289-.435 1.829-.817 3.631-.859 5.211-.041 1.579.254 3.127 1.375 4.26 1.114 1.126 2.838 1.633 5.16 1.633.164 0 .928-.015 1.691-.031l.079-.001.55-.011-6.85 38.316a618.663 618.663 0 00-3.473-.038 37.633 37.633 0 01-16.756-4.097h0a37.563 37.563 0 01-13.159-11.138c-7.09-9.605-7.334-22.04-4.134-39.907l.001-.006 13.653-70.99h37.607zM559.05 118.819v.004a48.886 48.886 0 01-.785 9.492v.002l-7.76 41.991h-35.566c-24.802 0-44.862-16.279-45.152-41.9a43.6 43.6 0 015.935-20.884 43.702 43.702 0 0114.393-14.907l15.448 29.22a9.183 9.183 0 00-.622 5.537h0a9.192 9.192 0 003.098 5.233h0a9.21 9.21 0 0011.484.292 9.177 9.177 0 00-1.398-15.51h0a9.218 9.218 0 00-5.285-.924l-22.258-41.767c17.505-4.533 34.377-3.242 46.961 3.872 12.777 7.223 21.278 20.528 21.507 40.249z" stroke="#fff" stroke-width="2"/></g><g filter="url(#filter2_i)"><path d="M618.902 77.426l-6.804 39.599a3.239 3.239 0 00-.185-.074c-.641-.233-1.484-.314-2.964-.314h-.058l-.058.007a12.138 12.138 0 00-6.504 2.848l.618.72-.618-.72a12.112 12.112 0 00-3.794 5.995l-.011.042-.008.043-8.6 47.274H551.31l8.579-48.047h0c2.221-12.462 9.79-25.173 20.563-34.326 10.51-8.93 24-14.416 38.45-13.047zm63.085 95.412h-20.506l6.418-36.656h13.994c2.532 0 4.169-1.859 4.584-4.158.412-2.284-.323-5.086-2.42-7.508l-.014-.016-.015-.015a26.894 26.894 0 01-6.683-12.553h0a26.87 26.87 0 018.467-26.084h0A26.98 26.98 0 01698.6 79.59l.03-.005.03-.008a87.078 87.078 0 018.941-1.79h.001a57.028 57.028 0 018.285-.608h17.923l-6.244 35.711h-14.59c-1.733 0-3.538 1.287-4.146 3.256-.635 2.059.074 4.607 2.775 7.163v.001c5.984 5.651 9.877 15.636 9.31 25.048-.563 9.331-5.49 18.002-17.092 21.343l-.004.001a77.997 77.997 0 01-21.832 3.136zm-305.888.024l15.576-86.153.001-.005a50.638 50.638 0 0114.748-27.748 50.81 50.81 0 0128.283-13.74 40.592 40.592 0 0117.046 1.874 40.53 40.53 0 0114.754 8.754h0a40.423 40.423 0 019.799 14.065h.001a40.38 40.38 0 013.086 16.852v.045a48.638 48.638 0 01-.49 7.54 51.19 51.19 0 00-1.592 1.37 80.031 80.031 0 00-4.627 4.401l-.007.008-.007.007a65.16 65.16 0 00-5.041 6.12l-.009.013-.009.013a59.2 59.2 0 00-2.524 4.038c-.806 1.419-1.467 2.863-2.113 4.329-.557 1.264-.974 2.578-1.379 3.857l-.249.781c-.471 1.463-.721 2.977-.963 4.439l-.089.537-.003.017-.002.016a60.448 60.448 0 00-.356 3.341 46.705 46.705 0 01-24.404 10.294 44.155 44.155 0 01-5.715.223l7.495-40.701a9.113 9.113 0 003.88-3.936 9.094 9.094 0 00-2.325-11.138 9.13 9.13 0 00-11.392-.182 9.09 9.09 0 00-2.68 11.058 9.115 9.115 0 003.552 3.941l-7.403 40.788v.001l-.724 3.969v.002l-.875 4.859v.001l-4.642 26.05h-38.601z" fill="#15243F" stroke="#15243F" stroke-width="2"/><path fill-rule="evenodd" clip-rule="evenodd" d="M79.612 173.861H39l15.78-87.33A51.654 51.654 0 0169.835 58.24a51.812 51.812 0 0128.866-14.001c5.898-.615 11.86.04 17.484 1.917a41.552 41.552 0 0115.12 8.97 41.446 41.446 0 0110.043 14.412 41.364 41.364 0 013.166 17.27v1.239L142.43 89.8l-3.976 3.97-3.611 4.287-3.246 4.525-2.823 4.724-2.386 4.875-1.925 5.009-1.448 5.081-1.519 8.463a47.077 47.077 0 01-21.73 8.13 44 44 0 01-6.99.175l7.786-42.332a8.12 8.12 0 003.895-3.745 8.101 8.101 0 00-2.16-9.952 8.139 8.139 0 00-5.1-1.8h-.453c-1.793.1-3.503.79-4.862 1.963a8.1 8.1 0 00-1.984 9.71 8.122 8.122 0 003.704 3.705l-7.556 41.49-.23 1.302-1.36 7.526-4.844 26.954z" fill="#731213"/><path fill-rule="evenodd" clip-rule="evenodd" d="M187.075 77.386l-7.238 42.077c-1.153-.627-.939-.976-3.889-.976a11.198 11.198 0 00-5.964 2.616 11.173 11.173 0 00-3.493 5.489l-8.75 48.096H117.13l8.749-49.223c4.565-25.429 30.82-51.644 61.196-48.08zm38.528 4.842a48.001 48.001 0 013.324-.222l-7.667 41.625a8.13 8.13 0 00-4.632 9.061 8.138 8.138 0 002.782 4.62 8.162 8.162 0 0010.189.175 8.125 8.125 0 002.399-9.887 8.146 8.146 0 00-3.779-3.85l7.533-41.387a41.888 41.888 0 0125.891 14.47 41.736 41.736 0 019.781 27.965 51.93 51.93 0 01-12.538 34.465 52.107 52.107 0 01-32.21 17.631 41.61 41.61 0 01-17.485-1.921 41.555 41.555 0 01-15.121-8.971 41.48 41.48 0 01-10.046-14.414 41.404 41.404 0 01-3.169-17.271A51.945 51.945 0 01193.4 99.86a52.123 52.123 0 0132.203-17.632zM367.8 173.862h-40.636l16.178-87.132h40.445L367.8 173.862zm-39.721-34.551l7.087-39.926-14.436.143.994-5.399a11.106 11.106 0 013.484-5.502 11.144 11.144 0 015.973-2.611 10.223 10.223 0 015.369.984l7.237-42.077c-.477-.056-2.433-.104-2.911-.143-29.762-2.596-55.238 23.206-59.732 48.222l-14.691 81.693h40.636l6.419-35.297 14.571-.087z" fill="#731213"/><path d="M668.934 48.495l-5.132 26.661-.231 1.201 1.223-.012 8.34-.083-6.723 37.919-9.189.058-.814.005-.16.799-.796 3.969-.002.01-.001.01c-.265 1.476-.622 2.941-.974 4.382-.104.429-.208.855-.309 1.28-.432 1.815-.812 3.604-.852 5.172-.041 1.568.251 3.106 1.366 4.233 1.107 1.119 2.821 1.623 5.125 1.623.163 0 .918-.015 1.674-.03l.083-.002.537-.011-6.795 38.005a573.025 573.025 0 00-3.44-.036 37.354 37.354 0 01-16.623-4.065h0a37.271 37.271 0 01-13.056-11.05c-7.033-9.529-7.276-21.865-4.1-39.594l.001-.007 13.546-70.437h37.302zM553.45 121.777v.003a48.439 48.439 0 01-.779 9.418v.002l-7.699 41.662h-35.286c-24.607 0-44.509-16.151-44.797-41.571a43.258 43.258 0 015.888-20.719 43.372 43.372 0 0114.273-14.786l15.324 28.985a9.108 9.108 0 00-.616 5.495v.001a9.122 9.122 0 003.076 5.197h0a9.152 9.152 0 0011.406.29 9.116 9.116 0 00-1.389-15.404h0a9.152 9.152 0 00-5.244-.918l-22.079-41.433c17.365-4.494 34.101-3.212 46.584 3.844 12.676 7.166 21.111 20.366 21.338 39.934z" fill="#15243F" stroke="#15243F" stroke-width="2"/><path fill-rule="evenodd" clip-rule="evenodd" d="M424.211 223.755l7.954-43.303h-15.296l-8.138 44.366a11.625 11.625 0 01-1.107 3.247 11.316 11.316 0 01-2.665 3.322 13.758 13.758 0 01-4.819 2.492 24.834 24.834 0 01-7.543 1.022 21.47 21.47 0 01-7.259-1.022 7.96 7.96 0 01-3.78-2.492 6.354 6.354 0 01-1.307-3.322 10.351 10.351 0 01.142-3.247l8.139-44.333h-15.313l-7.963 43.303c-.56 2.86-.353 5.816.604 8.571a16.16 16.16 0 004.886 6.794 24.266 24.266 0 008.625 4.46 39.964 39.964 0 0011.809 1.602 47.596 47.596 0 0012.572-1.553 33.81 33.81 0 009.949-4.41 25.466 25.466 0 006.948-6.777 22.693 22.693 0 003.537-8.687l.025-.033zm23.67 19.459l3.83-20.838h5.599l10.393 20.838h16.293l-13.913-26.518 21.322-20.115h-15.807l-18.297 17.831h-4.123l6.227-33.919h-14.332l-11.483 62.721h14.291zm80.705-35.712a42.89 42.89 0 00-4.82-.258 24.417 24.417 0 00-4.191.333 15.712 15.712 0 00-4.19 1.32 10.48 10.48 0 00-3.479 2.774 10.861 10.861 0 00-2.028 4.692l-4.937 26.876h-14.147l8.565-46.675h14.19l-1.676 9.044a19.16 19.16 0 011.609-2.425 11.841 11.841 0 012.355-2.176 34.147 34.147 0 014.191-2.541c.796-.449 1.626-.831 2.514-1.271a17.399 17.399 0 012.926-.997 14.014 14.014 0 013.352-.398c.281-.005.561.014.838.058.32.021.64.06.956.116l-2.104 11.528h.076zm48.897 35.712l.302-1.661a7.13 7.13 0 01-1.861-2.492 5.526 5.526 0 01-.369-3.014l4.685-25.489a11.35 11.35 0 00-1.232-8.571 12.38 12.38 0 00-7.015-4.767 40.534 40.534 0 00-11.918-1.462 47.592 47.592 0 00-5.339.266c-2.123.223-4.22.632-6.27 1.221a24.11 24.11 0 00-6.168 2.699 17.354 17.354 0 00-5.088 4.734 18.488 18.488 0 00-3.009 7.342h13.41c.234-.967.565-1.907.989-2.807a9.755 9.755 0 011.928-2.724 9.513 9.513 0 013.395-2.085 15.772 15.772 0 015.313-.831 12.509 12.509 0 014.828.789 4.84 4.84 0 012.515 2.035c.438.886.565 1.891.36 2.857a5.88 5.88 0 01-1.433 2.841 6.715 6.715 0 01-3.043 1.81 129.648 129.648 0 01-8.054 1.86 708.697 708.697 0 00-7.435 1.504 55.826 55.826 0 00-6.537 1.76 23.084 23.084 0 00-5.373 2.575 13.66 13.66 0 00-3.931 4.011 16.294 16.294 0 00-2.263 6.03 11.624 11.624 0 00.797 7.599 9.862 9.862 0 005.029 4.452 21.134 21.134 0 008.23 1.453 30.314 30.314 0 007.024-.83 27.658 27.658 0 005.465-1.927 28.526 28.526 0 003.905-2.201 127.326 127.326 0 002.364-1.661v.207a1.398 1.398 0 01-.042.216 6.446 6.446 0 000 2.301c.121.682.368 1.335.729 1.927l15.112.033zm-13.394-18.396a15.096 15.096 0 01-2.849 6.719 11.89 11.89 0 01-5.088 3.638 18.773 18.773 0 01-6.705 1.088 7.66 7.66 0 01-3.403-.665 4.594 4.594 0 01-1.869-1.661 5.031 5.031 0 01-.687-2.126 6.818 6.818 0 01.067-2.076 5.374 5.374 0 011.257-2.425 9.949 9.949 0 012.649-2.185 10.882 10.882 0 013.637-1.328c1.266-.233 2.665-.491 4.191-.789 1.525-.299 3.126-.682 4.777-1.097a48.82 48.82 0 004.82-1.478l-.839 4.393.042-.008zm47.339-33.578l1.978-10.796h-14.324l-1.97 10.796h14.316zm-9.555 52.007l8.566-46.675H596.19l-8.633 46.642 14.316.033zm62.928 0l5.741-31.26a13.9 13.9 0 00-.964-9.394 11.541 11.541 0 00-6.47-5.199 31.864 31.864 0 00-10.896-1.586 17.239 17.239 0 00-5.532.939 20.816 20.816 0 00-5.247 2.674 21.783 21.783 0 00-4.467 4.219l1.291-7.068h-14.14l-8.574 46.675h14.173l5.54-30.139a7.076 7.076 0 011.023-2.492 9.595 9.595 0 012.38-2.549 12.946 12.946 0 014.032-1.96 20.487 20.487 0 015.95-.789 12.31 12.31 0 014.853.78 4.048 4.048 0 012.246 2.027c.414.905.592 1.898.52 2.89a28.18 28.18 0 01-.453 3.322l-5.313 28.935 14.307-.025zm65.501-22.731a29.2 29.2 0 00.545-4.942 19.923 19.923 0 00-.453-5.165 19.72 19.72 0 00-2.095-5.399 15.846 15.846 0 00-2.615-3.397 18.38 18.38 0 00-3.973-2.956 22.372 22.372 0 00-5.54-2.06 30.007 30.007 0 00-7.208-.83 35.16 35.16 0 00-10.385 1.47 27.735 27.735 0 00-8.935 4.651 27.064 27.064 0 00-6.839 8.114 37.518 37.518 0 00-4.124 11.851 23.945 23.945 0 00.093 9.966 16.031 16.031 0 004.006 7.309 18.258 18.258 0 007.216 4.526 29.16 29.16 0 009.765 1.528 38.106 38.106 0 0012.287-1.918 29.482 29.482 0 009.605-5.274 22.88 22.88 0 006.144-7.956h-14.073a7.783 7.783 0 01-1.676 2.184 15.84 15.84 0 01-2.808 2.018 16.184 16.184 0 01-3.419 1.503 12.416 12.416 0 01-3.68.573 11.192 11.192 0 01-4.903-.98 8.599 8.599 0 01-3.193-2.491 8.703 8.703 0 01-1.576-3.43 9.047 9.047 0 01-.075-3.646c0-.249.083-.54.15-.922.067-.382.093-.731.16-1.096.047-.309.126-.612.234-.906h36.82c.043-.281.106-.559.193-.83.058-.224.092-.449.151-.665.058-.215.142-.506.201-.83zm-14.031-4.908h-22.018a12.34 12.34 0 011.232-3.497 12.896 12.896 0 012.515-3.446 12.466 12.466 0 014.014-2.608 14.366 14.366 0 015.599-1.047 11.636 11.636 0 014.35.764 6.862 6.862 0 012.682 1.952 7.303 7.303 0 011.375 2.633c.273.908.415 1.851.419 2.799.015.809-.045 1.617-.176 2.416l.008.034z" fill="#731213"/></g><defs><filter id="filter0_f" x=".604" y=".44" width="781.396" height="214.149" filterUnits="userSpaceOnUse" color-interpolation-filters="sRGB"><feFlood flood-opacity="0" result="BackgroundImageFix"/><feBlend in="SourceGraphic" in2="BackgroundImageFix" result="shape"/><feGaussianBlur stdDeviation="20" result="effect1_foregroundBlur"/></filter><filter id="filter1_if" x="35.604" y="35.44" width="711.396" height="144.149" filterUnits="userSpaceOnUse" color-interpolation-filters="sRGB"><feFlood flood-opacity="0" result="BackgroundImageFix"/><feBlend in="SourceGraphic" in2="BackgroundImageFix" result="shape"/><feColorMatrix in="SourceAlpha" values="0 0 0 0 0 0 0 0 0 0 0 0 0 0 0 0 0 0 127 0" result="hardAlpha"/><feOffset dy="4"/><feGaussianBlur stdDeviation="2"/><feComposite in2="hardAlpha" operator="arithmetic" k2="-1" k3="1"/><feColorMatrix values="0 0 0 0 0 0 0 0 0 0 0 0 0 0 0 0 0 0 0.25 0"/><feBlend in2="shape" result="effect1_innerShadow"/><feGaussianBlur stdDeviation="2.5" result="effect2_foregroundBlur"/></filter><filter id="filter2_i" x="39" y="44" width="696" height="201.22" filterUnits="userSpaceOnUse" color-interpolation-filters="sRGB"><feFlood flood-opacity="0" result="BackgroundImageFix"/><feBlend in="SourceGraphic" in2="BackgroundImageFix" result="shape"/><feColorMatrix in="SourceAlpha" values="0 0 0 0 0 0 0 0 0 0 0 0 0 0 0 0 0 0 127 0" result="hardAlpha"/><feOffset/><feGaussianBlur stdDeviation="10"/><feComposite in2="hardAlpha" operator="arithmetic" k2="-1" k3="1"/><feColorMatrix values="0 0 0 0 0 0 0 0 0 0 0 0 0 0 0 0 0 0 0.5 0"/><feBlend in2="shape" result="effect1_innerShadow"/></filter></defs></svg>