<svg width="1096" height="336" viewBox="0 0 1096 336" fill="none" xmlns="http://www.w3.org/2000/svg"><g filter="url(#filter0_i)"><path fill-rule="evenodd" clip-rule="evenodd" d="M63.952 204.492H0l24.85-137.52a81.34 81.34 0 0123.707-44.55A81.596 81.596 0 0194.01.375a65.51 65.51 0 0127.533 3.02 65.43 65.43 0 0123.809 14.124 65.271 65.271 0 0115.816 22.696 65.163 65.163 0 014.986 27.195v1.95l-3.282 2.763-6.262 6.25-5.686 6.752-5.111 7.126-4.446 7.438-3.757 7.677-3.031 7.888-2.28 8.001-2.392 13.327a74.128 74.128 0 01-34.218 12.802 69.312 69.312 0 01-11.01.275l12.262-66.66a12.788 12.788 0 006.134-5.898 12.75 12.75 0 001.069-8.434 12.776 12.776 0 00-4.47-7.236 12.814 12.814 0 00-8.03-2.835h-.715a12.812 12.812 0 00-7.655 3.09 12.773 12.773 0 00-4.172 7.114 12.754 12.754 0 001.048 8.176 12.789 12.789 0 005.832 5.836l-11.899 65.335-.363 2.05-2.142 11.852-7.627 42.443z" fill="#841819"/></g><path d="M1.197 203.492L25.833 67.15l.001-.005A80.341 80.341 0 0149.25 23.143 80.596 80.596 0 0194.132 1.368a64.51 64.51 0 0127.095 2.975 64.436 64.436 0 0123.446 13.909A64.262 64.262 0 01160.246 40.6h0a64.152 64.152 0 014.909 26.777v1.518l-2.926 2.463-.032.027-.03.03-6.263 6.251-.03.03-.028.034-5.686 6.75-.025.03-.023.032-5.11 7.126-.025.034-.021.036-4.446 7.439-.022.035-.018.038-3.758 7.676-.019.04-.016.041-3.031 7.889-.016.041-.012.043-2.28 8.001-.013.049-.009.049-2.319 12.917a73.136 73.136 0 01-33.414 12.394 68.329 68.329 0 01-9.712.323l11.963-65.031a13.791 13.791 0 006.136-6.132 13.758 13.758 0 00-3.668-16.898l-.628.779.628-.78a13.817 13.817 0 00-8.657-3.055h0-.743l-.027.002a13.813 13.813 0 00-8.254 3.331h0a13.772 13.772 0 00-4.498 7.67 13.754 13.754 0 001.13 8.818 13.787 13.787 0 005.615 5.937L73.1 147.967l-.001.005-.363 2.047v.003l-2.142 11.849v.001l-7.48 41.62H1.197z" stroke="#841819" stroke-width="2"/><g filter="url(#filter1_i)"><path fill-rule="evenodd" clip-rule="evenodd" d="M233.175 52.572l-11.397 66.26c-1.816-.988-1.478-1.538-6.125-1.538a17.639 17.639 0 00-9.391 4.121 17.585 17.585 0 00-5.501 8.644l-13.777 75.736h-63.952l13.777-77.511c7.189-40.044 48.534-81.325 96.366-75.712z" fill="#841819"/></g><path d="M232.01 53.45l-10.967 63.755a4.914 4.914 0 00-.927-.453c-.903-.326-2.138-.458-4.463-.458h-.059l-.059.007a18.638 18.638 0 00-9.924 4.355 18.586 18.586 0 00-5.813 9.135l-.013.044-.008.045-13.628 74.915h-61.924l13.568-76.335c3.55-19.77 15.549-39.901 32.606-54.391 16.794-14.268 38.421-23.01 61.611-20.62z" stroke="#841819" stroke-width="2"/><g filter="url(#filter2_i)"><path fill-rule="evenodd" clip-rule="evenodd" d="M915.016 51.247l-11.385 66.26c-1.816-1-1.466-1.55-6.125-1.55a17.555 17.555 0 00-9.399 4.115 17.499 17.499 0 00-5.48 8.662l-13.778 75.736H804.86l13.84-77.511c7.139-40.044 48.521-81.325 96.316-75.712z" fill="#192D52"/></g><path d="M913.85 52.125l-10.953 63.746a4.848 4.848 0 00-.921-.454c-.903-.329-2.14-.46-4.47-.46h-.058l-.058.007a18.543 18.543 0 00-9.934 4.35l.651.758-.651-.758a18.494 18.494 0 00-5.794 9.156l-.012.042-.007.043-13.628 74.915h-61.961l13.63-76.336h0c3.525-19.769 15.521-39.9 32.575-54.39 16.794-14.268 38.42-23.01 61.591-20.62z" stroke="#192D52" stroke-width="2"/><g filter="url(#filter3_i)"><path fill-rule="evenodd" clip-rule="evenodd" d="M989.013 143.586h23.357c6.09 0 8.29-8.751 2.22-15.765a44.04 44.04 0 01-10.92-20.501 43.923 43.923 0 011.07-23.191 44.006 44.006 0 0112.76-19.413 44.065 44.065 0 0120.89-10.218c4.69-1.198 9.44-2.15 14.24-2.85 4.39-.648 8.83-.974 13.27-.976h30.1l-10.38 59.384h-24.3c-4 0-9.04 6.151-1.08 13.69 19.58 18.49 25.13 64.759-12.9 75.711a124.39 124.39 0 01-34.82 5h-34.166l10.659-60.871z" fill="#192D52"/></g><path d="M1012.52 203.457h-32.976l10.309-58.871h22.517c3.64 0 6.04-2.658 6.65-6.075.62-3.403-.47-7.643-3.68-11.344l-.01-.017-.01-.015a42.918 42.918 0 01-10.67-20.035h0a42.873 42.873 0 011.05-22.663 42.909 42.909 0 0112.46-18.97h0a43.13 43.13 0 0120.41-9.987l.03-.005.03-.008c4.66-1.19 9.38-2.134 14.14-2.83h0c4.35-.64 8.74-.963 13.13-.965 0 0 0 0 0 0h28.91l-10.03 57.384h-23.46c-2.46 0-5.09 1.849-5.98 4.723-.92 2.964.06 6.761 4.21 10.693v.001c9.56 9.025 15.75 24.918 14.84 39.895-.89 14.896-8.78 28.788-27.33 34.128v.001a123.403 123.403 0 01-34.54 4.96z" stroke="#192D52" stroke-width="2"/><g filter="url(#filter4_i)"><path fill-rule="evenodd" clip-rule="evenodd" d="M293.846 60.198a75.61 75.61 0 015.235-.35l-12.074 65.548a12.824 12.824 0 00-6.155 5.857 12.789 12.789 0 00-1.138 8.411 12.81 12.81 0 004.38 7.276 12.853 12.853 0 0016.044.275 12.799 12.799 0 003.779-15.569 12.828 12.828 0 00-5.951-6.063l11.861-65.172A65.964 65.964 0 01350.6 83.198a65.728 65.728 0 0115.401 44.035 81.77 81.77 0 01-19.744 54.273 82.058 82.058 0 01-50.72 27.764 65.531 65.531 0 01-27.535-3.025 65.447 65.447 0 01-23.811-14.127 65.3 65.3 0 01-15.819-22.699 65.168 65.168 0 01-4.991-27.196 81.797 81.797 0 0119.755-54.26 82.08 82.08 0 0150.71-27.765z" fill="#841819"/></g><path d="M278.735 139.866h0a13.805 13.805 0 004.721 7.844 13.854 13.854 0 0017.293.297h0a13.815 13.815 0 004.988-7.679h0c.74-3.051.418-6.262-.915-9.106h0a13.826 13.826 0 00-5.74-6.181l11.555-63.491a64.96 64.96 0 0139.197 22.291 64.73 64.73 0 0115.168 43.366l-.001.019.001.019a80.783 80.783 0 01-19.503 53.61 81.062 81.062 0 01-50.084 27.423 64.527 64.527 0 01-27.096-2.982l-.317.949.317-.949a64.427 64.427 0 01-23.447-13.911 64.3 64.3 0 01-15.577-22.35 64.182 64.182 0 01-4.915-26.78l.001-.022v-.022a80.793 80.793 0 0119.514-53.596 81.076 81.076 0 0150.074-27.424 68.924 68.924 0 013.902-.29l-11.755 63.81a13.825 13.825 0 00-6.154 6.086 13.79 13.79 0 00-1.227 9.069z" stroke="#841819" stroke-width="2"/><g filter="url(#filter5_i)"><path fill-rule="evenodd" clip-rule="evenodd" d="M592.939 204.495h-63.99l24.862-137.52a81.321 81.321 0 0123.684-44.557A81.583 81.583 0 01622.936.352a65.495 65.495 0 0127.53 3.02 65.404 65.404 0 0123.807 14.125 65.224 65.224 0 0120.794 49.89 78.113 78.113 0 01-.877 12.727 78.07 78.07 0 00-2.931 2.5 124.167 124.167 0 00-7.202 6.851 101.056 101.056 0 00-7.815 9.49 91.252 91.252 0 00-3.908 6.25c-1.228 2.163-2.242 4.376-3.257 6.676-1.014 2.301-1.715 4.701-2.505 7.151-.789 2.451-1.164 5.001-1.603 7.614a94.376 94.376 0 00-.601 5.838 75.11 75.11 0 01-39.779 16.99c-3.67.382-7.363.478-11.047.288l12.275-66.66a12.782 12.782 0 006.111-5.847 12.75 12.75 0 00-3.259-15.61 12.805 12.805 0 00-15.975-.256 12.762 12.762 0 00-4.601 7.092 12.74 12.74 0 00.844 8.407 12.782 12.782 0 005.92 6.039l-11.861 65.347-1.139 6.251-1.378 7.651-7.54 42.319z" fill="#192D52"/></g><path d="M530.146 203.495l24.649-136.343.001-.005a80.333 80.333 0 0123.392-44.01 80.588 80.588 0 0144.868-21.792 64.48 64.48 0 0127.093 2.976 64.4 64.4 0 0123.443 13.909l.681-.733-.681.733a64.23 64.23 0 0115.57 22.348h0a64.146 64.146 0 014.905 26.777l-.001.022.001.023a77.236 77.236 0 01-.809 12.183 79.843 79.843 0 00-2.663 2.283 125.082 125.082 0 00-7.255 6.903l-.008.007-.007.008a102.002 102.002 0 00-7.892 9.583l-.01.013-.009.013a92.554 92.554 0 00-3.95 6.319c-1.254 2.209-2.285 4.46-3.301 6.766-.864 1.958-1.509 3.992-2.147 6.006l-.395 1.242c-.728 2.259-1.115 4.6-1.497 6.908l-.141.847-.003.016-.002.016a96.101 96.101 0 00-.576 5.474 74.117 74.117 0 01-38.919 16.493 70.384 70.384 0 01-9.749.333l11.974-65.028a13.772 13.772 0 006.111-6.077 13.741 13.741 0 001.201-9.033 13.763 13.763 0 00-4.715-7.802 13.803 13.803 0 00-17.222-.275 13.746 13.746 0 00-4.052 16.714 13.783 13.783 0 005.712 6.157l-11.73 64.626-.001.001-1.139 6.25-.001.002-1.377 7.651-.001.002-7.393 41.494h-61.955z" stroke="#192D52" stroke-width="2"/><g filter="url(#filter6_i)"><path fill-rule="evenodd" clip-rule="evenodd" d="M517.765 204.495h-63.989l25.475-137.208h63.689l-25.175 137.208z" fill="#841819"/></g><path d="M541.74 68.287l-24.808 135.208h-61.954l25.105-135.208h61.657z" stroke="#841819" stroke-width="2"/><g filter="url(#filter7_i)"><path fill-rule="evenodd" clip-rule="evenodd" d="M455.216 150.087l11.16-62.872-22.733.225 1.566-8.501a17.493 17.493 0 015.485-8.664 17.554 17.554 0 019.407-4.113 16.1 16.1 0 018.454 1.55l11.398-66.26c-.752-.087-3.833-.162-4.585-.224C428.5-2.86 388.383 37.77 381.307 77.164l-23.134 128.644h63.99l10.107-55.583 22.946-.138z" fill="#841819"/></g><path d="M467.786 66.284a17.097 17.097 0 00-7.774-1.118l-.013.001-.014.002a18.555 18.555 0 00-9.942 4.347 18.506 18.506 0 00-5.799 9.16l-.011.04-.008.042-1.565 8.501-.22 1.193 1.213-.012 21.527-.213-10.803 60.865-22.113.133-.829.005-.148.816-9.959 54.762h-61.959l22.922-127.467h0c3.494-19.45 15.162-39.258 31.781-53.696C430.683 9.214 452.171.208 475.282 2.224h.004c.348.03 1.132.06 1.941.09l.394.016c.412.016.81.032 1.158.049l-10.993 63.905z" stroke="#841819" stroke-width="2"/><g filter="url(#filter8_i)"><path fill-rule="evenodd" clip-rule="evenodd" d="M989.313 112.081l11.147-62.871-15.03.15 8.442-43.857h-61.948l-21.58 112.217c-5.01 27.966-4.76 47.994 6.738 63.572a60.26 60.26 0 0021.111 17.868 60.379 60.379 0 0026.884 6.573c.927 0 5.787.062 6.739.075l11.272-63.047c-.526 0-5.01.1-5.498.1-13.778 0-7.515-12.139-5.311-24.429l1.253-6.251 15.781-.1z" fill="#192D52"/></g><path d="M965.082 204.733c.777 0 4.176.042 5.899.064l10.909-61.017-1.545.031-.096.002c-1.206.024-2.408.048-2.659.048-3.562 0-6.075-.78-7.663-2.386-1.595-1.611-2.048-3.844-1.985-6.246.062-2.402.646-5.166 1.327-8.027.157-.661.32-1.328.483-2 .555-2.273 1.123-4.603 1.543-6.946l.002-.01.002-.01 1.252-6.251.16-.799.814-.005 14.949-.094 10.791-60.865-13.825.137-1.223.013.231-1.202 8.213-42.667H932.75l-21.422 111.393-.984-.176m54.738 87.013h.004l-.009 1v-1h.005zm0 0a59.39 59.39 0 01-26.435-6.464 59.25 59.25 0 01-20.761-17.572m0 0c-11.229-15.214-11.563-34.859-6.559-62.795l-.001.006-.982-.188m7.542 62.977l-.804.595m.804-.595l.001.001-.805.594m-6.738-63.572l21.58-112.217-14.842 175.789m-6.738-63.572c-5.01 27.966-4.76 47.994 6.738 63.572" stroke="#192D52" stroke-width="2"/><g filter="url(#filter9_i)"><path fill-rule="evenodd" clip-rule="evenodd" d="M811.686 122.458a77.93 77.93 0 01-1.253 15.139l-12.362 66.898h-56.875c-39.466 0-71.667-25.992-72.118-67.048a69.684 69.684 0 019.487-33.409 69.866 69.866 0 0124.442-24.712l25.288 47.832a12.777 12.777 0 003.124 15.666 12.83 12.83 0 0015.997.407 12.785 12.785 0 004.679-7.057 12.758 12.758 0 00-.76-8.429 12.802 12.802 0 00-5.867-6.11 12.837 12.837 0 00-8.405-1.115l-36.222-67.972.288-.1c56.399-15.315 109.83 7.376 110.557 70.01z" fill="#192D52"/></g><path d="M810.686 122.473v-.004c-.36-30.997-13.736-51.982-33.894-63.377-19.989-11.3-46.79-13.247-74.488-5.924l35.299 66.24c2.837-.43 5.746.033 8.317 1.335h0a13.803 13.803 0 016.325 6.587 13.78 13.78 0 01-4.226 16.698 13.834 13.834 0 01-17.243-.438h-.001a13.79 13.79 0 01-4.65-7.857h0a13.76 13.76 0 011.047-8.559l-24.552-46.44a68.857 68.857 0 00-23.191 23.808 68.688 68.688 0 00-9.351 32.912c.453 40.404 32.106 66.041 71.118 66.041h56.043l12.21-66.077 1.237-14.945zm0 0a77.022 77.022 0 01-1.236 14.943l.983.181a77.93 77.93 0 001.253-15.139l-1 .015z" stroke="#192D52" stroke-width="2"/><mask id="path-21-inside-1" fill="#fff"><path fill-rule="evenodd" clip-rule="evenodd" d="M608.647 302.79l12.431-66.827h-23.905l-12.719 68.467a17.826 17.826 0 01-1.729 5.011 17.518 17.518 0 01-4.166 5.127 21.607 21.607 0 01-7.531 3.845 39.308 39.308 0 01-11.789 1.577 33.92 33.92 0 01-11.344-1.577 12.441 12.441 0 01-5.907-3.845 9.743 9.743 0 01-2.044-5.127 15.823 15.823 0 01.223-5.011l12.719-68.415h-23.932l-12.443 66.826a25.1 25.1 0 00.943 13.227 24.961 24.961 0 007.636 10.484 38.068 38.068 0 0013.479 6.882 63.209 63.209 0 0018.456 2.474 75.342 75.342 0 0019.648-2.397 53.189 53.189 0 0015.548-6.806 39.575 39.575 0 0010.859-10.458 34.77 34.77 0 005.528-13.406l.039-.051zm36.991 30.029l5.986-32.157h8.75l16.243 32.157h25.464l-21.744-40.924 33.323-31.042h-24.704l-28.595 27.518h-6.444l9.732-52.343H641.25l-17.945 96.791h22.333zm126.128-55.112a67.896 67.896 0 00-7.532-.397 38.612 38.612 0 00-6.549.513 24.804 24.804 0 00-6.549 2.038 16.323 16.323 0 00-5.436 4.28 16.646 16.646 0 00-3.17 7.242l-7.715 41.474h-22.111l13.387-72.029h22.176l-2.62 13.957a29.48 29.48 0 012.515-3.742 18.34 18.34 0 013.681-3.358 53.468 53.468 0 016.549-3.922c1.245-.692 2.541-1.282 3.93-1.961a27.446 27.446 0 014.571-1.538 22.113 22.113 0 015.24-.615 7.56 7.56 0 011.31.089c.5.032.999.093 1.493.18l-3.288 17.789h.118zm76.418 55.112l.472-2.563a11.018 11.018 0 01-2.908-3.845 8.426 8.426 0 01-.576-4.653l7.322-39.334a17.332 17.332 0 00-1.926-13.227c-2.651-3.642-6.536-6.248-10.963-7.357a64.074 64.074 0 00-18.627-2.255 75.014 75.014 0 00-8.344.41 57.7 57.7 0 00-9.798 1.884 37.965 37.965 0 00-9.64 4.165 26.994 26.994 0 00-7.951 7.306 28.323 28.323 0 00-4.703 11.33H801.5a22.494 22.494 0 011.546-4.332 15.04 15.04 0 013.013-4.204 14.91 14.91 0 015.305-3.217 24.927 24.927 0 018.304-1.282 19.775 19.775 0 017.545 1.218 7.533 7.533 0 013.93 3.14 6.693 6.693 0 01.563 4.409 9.029 9.029 0 01-2.24 4.383 10.508 10.508 0 01-4.755 2.794 206.153 206.153 0 01-12.588 2.871c-4.06.795-7.964 1.564-11.618 2.32a87.98 87.98 0 00-10.217 2.717 36.288 36.288 0 00-8.397 3.973 21.206 21.206 0 00-6.143 6.191 24.915 24.915 0 00-3.537 9.304 17.736 17.736 0 001.245 11.728 15.353 15.353 0 007.859 6.869 33.39 33.39 0 0012.863 2.243 47.868 47.868 0 0010.977-1.281 43.531 43.531 0 008.54-2.974 44.66 44.66 0 006.104-3.396 184.826 184.826 0 003.694-2.564v.321a2.085 2.085 0 01-.065.333 9.76 9.76 0 000 3.55 8.509 8.509 0 001.139 2.974l23.617.051zm-20.932-28.389a23.14 23.14 0 01-4.453 10.369 18.558 18.558 0 01-7.951 5.613 29.63 29.63 0 01-10.479 1.679 12.092 12.092 0 01-5.318-1.025 7.15 7.15 0 01-2.921-2.563 7.711 7.711 0 01-1.074-3.281 10.374 10.374 0 01.105-3.204 8.264 8.264 0 011.964-3.743c1.17-1.35 2.57-2.49 4.14-3.371a17.16 17.16 0 015.684-2.05c1.978-.359 4.166-.757 6.55-1.218 2.384-.461 4.886-1.051 7.466-1.692a76.943 76.943 0 007.532-2.281l-1.31 6.78.065-.013zm73.982-51.818l3.092-16.661H881.94l-3.078 16.661h22.372zm-14.932 80.258l13.387-72.029h-22.268l-13.492 71.978 22.373.051zm98.345 0l8.973-48.242a21.207 21.207 0 00-1.506-14.495c-2.235-3.812-5.84-6.671-10.113-8.024a50.344 50.344 0 00-17.028-2.447 27.251 27.251 0 00-8.645 1.448 32.722 32.722 0 00-8.2 4.127 33.87 33.87 0 00-6.982 6.511l2.018-10.907h-22.098l-13.4 72.029h22.15l8.658-46.511c.278-1.369.82-2.675 1.598-3.845a14.894 14.894 0 013.72-3.935 20.384 20.384 0 016.301-3.025 32.453 32.453 0 019.3-1.217 19.482 19.482 0 017.584 1.204 6.306 6.306 0 013.511 3.128 9.055 9.055 0 01.812 4.46 43.415 43.415 0 01-.708 5.126l-8.304 44.654 22.359-.039zm102.363-35.079c.51-2.515.79-5.065.86-7.626.11-2.676-.13-5.356-.71-7.972a29.994 29.994 0 00-3.28-8.331 24.289 24.289 0 00-4.08-5.242 28.735 28.735 0 00-6.21-4.562 35.27 35.27 0 00-8.66-3.179 47.522 47.522 0 00-11.27-1.282 55.618 55.618 0 00-16.22 2.269 43.585 43.585 0 00-13.97 7.177c-4.37 3.445-8 7.701-10.69 12.522a57.491 57.491 0 00-6.44 18.29c-1.05 5.08-1 10.318.14 15.38a24.67 24.67 0 006.26 11.278 28.656 28.656 0 0011.28 6.985 46.156 46.156 0 0015.26 2.359c6.53.057 13.01-.944 19.2-2.961a46.214 46.214 0 0015.02-8.139 35.431 35.431 0 009.6-12.278h-22a11.837 11.837 0 01-2.62 3.371 24.81 24.81 0 01-4.38 3.114 25.607 25.607 0 01-5.35 2.32c-1.86.578-3.8.875-5.75.884-2.64.072-5.26-.444-7.66-1.512a13.475 13.475 0 01-4.99-3.845 13.313 13.313 0 01-2.46-5.293 13.68 13.68 0 01-.12-5.627c0-.384.13-.833.23-1.422.11-.59.15-1.128.25-1.692.08-.477.2-.945.37-1.397h57.54c.07-.435.17-.863.3-1.282.1-.346.15-.692.24-1.025.09-.333.22-.782.31-1.282zm-21.92-7.575h-34.41a18.916 18.916 0 011.92-5.395c1-1.974 2.33-3.771 3.93-5.319a19.576 19.576 0 016.28-4.025 22.706 22.706 0 018.75-1.615c2.32-.039 4.63.361 6.79 1.18 1.63.652 3.07 1.686 4.2 3.011a11.136 11.136 0 012.14 4.063c.43 1.402.65 2.857.66 4.32.02 1.248-.07 2.496-.28 3.729l.02.051z"/></mask><g filter="url(#filter10_i)"><path fill-rule="evenodd" clip-rule="evenodd" d="M608.647 302.79l12.431-66.827h-23.905l-12.719 68.467a17.826 17.826 0 01-1.729 5.011 17.518 17.518 0 01-4.166 5.127 21.607 21.607 0 01-7.531 3.845 39.308 39.308 0 01-11.789 1.577 33.92 33.92 0 01-11.344-1.577 12.441 12.441 0 01-5.907-3.845 9.743 9.743 0 01-2.044-5.127 15.823 15.823 0 01.223-5.011l12.719-68.415h-23.932l-12.443 66.826a25.1 25.1 0 00.943 13.227 24.961 24.961 0 007.636 10.484 38.068 38.068 0 0013.479 6.882 63.209 63.209 0 0018.456 2.474 75.342 75.342 0 0019.648-2.397 53.189 53.189 0 0015.548-6.806 39.575 39.575 0 0010.859-10.458 34.77 34.77 0 005.528-13.406l.039-.051zm36.991 30.029l5.986-32.157h8.75l16.243 32.157h25.464l-21.744-40.924 33.323-31.042h-24.704l-28.595 27.518h-6.444l9.732-52.343H641.25l-17.945 96.791h22.333zm126.128-55.112a67.896 67.896 0 00-7.532-.397 38.612 38.612 0 00-6.549.513 24.804 24.804 0 00-6.549 2.038 16.323 16.323 0 00-5.436 4.28 16.646 16.646 0 00-3.17 7.242l-7.715 41.474h-22.111l13.387-72.029h22.176l-2.62 13.957a29.48 29.48 0 012.515-3.742 18.34 18.34 0 013.681-3.358 53.468 53.468 0 016.549-3.922c1.245-.692 2.541-1.282 3.93-1.961a27.446 27.446 0 014.571-1.538 22.113 22.113 0 015.24-.615 7.56 7.56 0 011.31.089c.5.032.999.093 1.493.18l-3.288 17.789h.118zm76.418 55.112l.472-2.563a11.018 11.018 0 01-2.908-3.845 8.426 8.426 0 01-.576-4.653l7.322-39.334a17.332 17.332 0 00-1.926-13.227c-2.651-3.642-6.536-6.248-10.963-7.357a64.074 64.074 0 00-18.627-2.255 75.014 75.014 0 00-8.344.41 57.7 57.7 0 00-9.798 1.884 37.965 37.965 0 00-9.64 4.165 26.994 26.994 0 00-7.951 7.306 28.323 28.323 0 00-4.703 11.33H801.5a22.494 22.494 0 011.546-4.332 15.04 15.04 0 013.013-4.204 14.91 14.91 0 015.305-3.217 24.927 24.927 0 018.304-1.282 19.775 19.775 0 017.545 1.218 7.533 7.533 0 013.93 3.14 6.693 6.693 0 01.563 4.409 9.029 9.029 0 01-2.24 4.383 10.508 10.508 0 01-4.755 2.794 206.153 206.153 0 01-12.588 2.871c-4.06.795-7.964 1.564-11.618 2.32a87.98 87.98 0 00-10.217 2.717 36.288 36.288 0 00-8.397 3.973 21.206 21.206 0 00-6.143 6.191 24.915 24.915 0 00-3.537 9.304 17.736 17.736 0 001.245 11.728 15.353 15.353 0 007.859 6.869 33.39 33.39 0 0012.863 2.243 47.868 47.868 0 0010.977-1.281 43.531 43.531 0 008.54-2.974 44.66 44.66 0 006.104-3.396 184.826 184.826 0 003.694-2.564v.321a2.085 2.085 0 01-.065.333 9.76 9.76 0 000 3.55 8.509 8.509 0 001.139 2.974l23.617.051zm-20.932-28.389a23.14 23.14 0 01-4.453 10.369 18.558 18.558 0 01-7.951 5.613 29.63 29.63 0 01-10.479 1.679 12.092 12.092 0 01-5.318-1.025 7.15 7.15 0 01-2.921-2.563 7.711 7.711 0 01-1.074-3.281 10.374 10.374 0 01.105-3.204 8.264 8.264 0 011.964-3.743c1.17-1.35 2.57-2.49 4.14-3.371a17.16 17.16 0 015.684-2.05c1.978-.359 4.166-.757 6.55-1.218 2.384-.461 4.886-1.051 7.466-1.692a76.943 76.943 0 007.532-2.281l-1.31 6.78.065-.013zm73.982-51.818l3.092-16.661H881.94l-3.078 16.661h22.372zm-14.932 80.258l13.387-72.029h-22.268l-13.492 71.978 22.373.051zm98.345 0l8.973-48.242a21.207 21.207 0 00-1.506-14.495c-2.235-3.812-5.84-6.671-10.113-8.024a50.344 50.344 0 00-17.028-2.447 27.251 27.251 0 00-8.645 1.448 32.722 32.722 0 00-8.2 4.127 33.87 33.87 0 00-6.982 6.511l2.018-10.907h-22.098l-13.4 72.029h22.15l8.658-46.511c.278-1.369.82-2.675 1.598-3.845a14.894 14.894 0 013.72-3.935 20.384 20.384 0 016.301-3.025 32.453 32.453 0 019.3-1.217 19.482 19.482 0 017.584 1.204 6.306 6.306 0 013.511 3.128 9.055 9.055 0 01.812 4.46 43.415 43.415 0 01-.708 5.126l-8.304 44.654 22.359-.039zm102.363-35.079c.51-2.515.79-5.065.86-7.626.11-2.676-.13-5.356-.71-7.972a29.994 29.994 0 00-3.28-8.331 24.289 24.289 0 00-4.08-5.242 28.735 28.735 0 00-6.21-4.562 35.27 35.27 0 00-8.66-3.179 47.522 47.522 0 00-11.27-1.282 55.618 55.618 0 00-16.22 2.269 43.585 43.585 0 00-13.97 7.177c-4.37 3.445-8 7.701-10.69 12.522a57.491 57.491 0 00-6.44 18.29c-1.05 5.08-1 10.318.14 15.38a24.67 24.67 0 006.26 11.278 28.656 28.656 0 0011.28 6.985 46.156 46.156 0 0015.26 2.359c6.53.057 13.01-.944 19.2-2.961a46.214 46.214 0 0015.02-8.139 35.431 35.431 0 009.6-12.278h-22a11.837 11.837 0 01-2.62 3.371 24.81 24.81 0 01-4.38 3.114 25.607 25.607 0 01-5.35 2.32c-1.86.578-3.8.875-5.75.884-2.64.072-5.26-.444-7.66-1.512a13.475 13.475 0 01-4.99-3.845 13.313 13.313 0 01-2.46-5.293 13.68 13.68 0 01-.12-5.627c0-.384.13-.833.23-1.422.11-.59.15-1.128.25-1.692.08-.477.2-.945.37-1.397h57.54c.07-.435.17-.863.3-1.282.1-.346.15-.692.24-1.025.09-.333.22-.782.31-1.282zm-21.92-7.575h-34.41a18.916 18.916 0 011.92-5.395c1-1.974 2.33-3.771 3.93-5.319a19.576 19.576 0 016.28-4.025 22.706 22.706 0 018.75-1.615c2.32-.039 4.63.361 6.79 1.18 1.63.652 3.07 1.686 4.2 3.011a11.136 11.136 0 012.14 4.063c.43 1.402.65 2.857.66 4.32.02 1.248-.07 2.496-.28 3.729l.02.051z" fill="#841819"/></g><path clip-rule="evenodd" d="M608.647 302.79l12.431-66.827h-23.905l-12.719 68.467a17.826 17.826 0 01-1.729 5.011 17.518 17.518 0 01-4.166 5.127 21.607 21.607 0 01-7.531 3.845 39.308 39.308 0 01-11.789 1.577 33.92 33.92 0 01-11.344-1.577 12.441 12.441 0 01-5.907-3.845 9.743 9.743 0 01-2.044-5.127 15.823 15.823 0 01.223-5.011l12.719-68.415h-23.932l-12.443 66.826a25.1 25.1 0 00.943 13.227 24.961 24.961 0 007.636 10.484 38.068 38.068 0 0013.479 6.882 63.209 63.209 0 0018.456 2.474 75.342 75.342 0 0019.648-2.397 53.189 53.189 0 0015.548-6.806 39.575 39.575 0 0010.859-10.458 34.77 34.77 0 005.528-13.406l.039-.051zm36.991 30.029l5.986-32.157h8.75l16.243 32.157h25.464l-21.744-40.924 33.323-31.042h-24.704l-28.595 27.518h-6.444l9.732-52.343H641.25l-17.945 96.791h22.333zm126.128-55.112a67.896 67.896 0 00-7.532-.397 38.612 38.612 0 00-6.549.513 24.804 24.804 0 00-6.549 2.038 16.323 16.323 0 00-5.436 4.28 16.646 16.646 0 00-3.17 7.242l-7.715 41.474h-22.111l13.387-72.029h22.176l-2.62 13.957a29.48 29.48 0 012.515-3.742 18.34 18.34 0 013.681-3.358 53.468 53.468 0 016.549-3.922c1.245-.692 2.541-1.282 3.93-1.961a27.446 27.446 0 014.571-1.538 22.113 22.113 0 015.24-.615 7.56 7.56 0 011.31.089c.5.032.999.093 1.493.18l-3.288 17.789h.118zm76.418 55.112l.472-2.563a11.018 11.018 0 01-2.908-3.845 8.426 8.426 0 01-.576-4.653l7.322-39.334a17.332 17.332 0 00-1.926-13.227c-2.651-3.642-6.536-6.248-10.963-7.357a64.074 64.074 0 00-18.627-2.255 75.014 75.014 0 00-8.344.41 57.7 57.7 0 00-9.798 1.884 37.965 37.965 0 00-9.64 4.165 26.994 26.994 0 00-7.951 7.306 28.323 28.323 0 00-4.703 11.33H801.5a22.494 22.494 0 011.546-4.332 15.04 15.04 0 013.013-4.204 14.91 14.91 0 015.305-3.217 24.927 24.927 0 018.304-1.282 19.775 19.775 0 017.545 1.218 7.533 7.533 0 013.93 3.14 6.693 6.693 0 01.563 4.409 9.029 9.029 0 01-2.24 4.383 10.508 10.508 0 01-4.755 2.794 206.153 206.153 0 01-12.588 2.871c-4.06.795-7.964 1.564-11.618 2.32a87.98 87.98 0 00-10.217 2.717 36.288 36.288 0 00-8.397 3.973 21.206 21.206 0 00-6.143 6.191 24.915 24.915 0 00-3.537 9.304 17.736 17.736 0 001.245 11.728 15.353 15.353 0 007.859 6.869 33.39 33.39 0 0012.863 2.243 47.868 47.868 0 0010.977-1.281 43.531 43.531 0 008.54-2.974 44.66 44.66 0 006.104-3.396 184.826 184.826 0 003.694-2.564v.321a2.085 2.085 0 01-.065.333 9.76 9.76 0 000 3.55 8.509 8.509 0 001.139 2.974l23.617.051zm-20.932-28.389a23.14 23.14 0 01-4.453 10.369 18.558 18.558 0 01-7.951 5.613 29.63 29.63 0 01-10.479 1.679 12.092 12.092 0 01-5.318-1.025 7.15 7.15 0 01-2.921-2.563 7.711 7.711 0 01-1.074-3.281 10.374 10.374 0 01.105-3.204 8.264 8.264 0 011.964-3.743c1.17-1.35 2.57-2.49 4.14-3.371a17.16 17.16 0 015.684-2.05c1.978-.359 4.166-.757 6.55-1.218 2.384-.461 4.886-1.051 7.466-1.692a76.943 76.943 0 007.532-2.281l-1.31 6.78.065-.013zm73.982-51.818l3.092-16.661H881.94l-3.078 16.661h22.372zm-14.932 80.258l13.387-72.029h-22.268l-13.492 71.978 22.373.051zm98.345 0l8.973-48.242a21.207 21.207 0 00-1.506-14.495c-2.235-3.812-5.84-6.671-10.113-8.024a50.344 50.344 0 00-17.028-2.447 27.251 27.251 0 00-8.645 1.448 32.722 32.722 0 00-8.2 4.127 33.87 33.87 0 00-6.982 6.511l2.018-10.907h-22.098l-13.4 72.029h22.15l8.658-46.511c.278-1.369.82-2.675 1.598-3.845a14.894 14.894 0 013.72-3.935 20.384 20.384 0 016.301-3.025 32.453 32.453 0 019.3-1.217 19.482 19.482 0 017.584 1.204 6.306 6.306 0 013.511 3.128 9.055 9.055 0 01.812 4.46 43.415 43.415 0 01-.708 5.126l-8.304 44.654 22.359-.039zm102.363-35.079c.51-2.515.79-5.065.86-7.626.11-2.676-.13-5.356-.71-7.972a29.994 29.994 0 00-3.28-8.331 24.289 24.289 0 00-4.08-5.242 28.735 28.735 0 00-6.21-4.562 35.27 35.27 0 00-8.66-3.179 47.522 47.522 0 00-11.27-1.282 55.618 55.618 0 00-16.22 2.269 43.585 43.585 0 00-13.97 7.177c-4.37 3.445-8 7.701-10.69 12.522a57.491 57.491 0 00-6.44 18.29c-1.05 5.08-1 10.318.14 15.38a24.67 24.67 0 006.26 11.278 28.656 28.656 0 0011.28 6.985 46.156 46.156 0 0015.26 2.359c6.53.057 13.01-.944 19.2-2.961a46.214 46.214 0 0015.02-8.139 35.431 35.431 0 009.6-12.278h-22a11.837 11.837 0 01-2.62 3.371 24.81 24.81 0 01-4.38 3.114 25.607 25.607 0 01-5.35 2.32c-1.86.578-3.8.875-5.75.884-2.64.072-5.26-.444-7.66-1.512a13.475 13.475 0 01-4.99-3.845 13.313 13.313 0 01-2.46-5.293 13.68 13.68 0 01-.12-5.627c0-.384.13-.833.23-1.422.11-.59.15-1.128.25-1.692.08-.477.2-.945.37-1.397h57.54c.07-.435.17-.863.3-1.282.1-.346.15-.692.24-1.025.09-.333.22-.782.31-1.282zm-21.92-7.575h-34.41a18.916 18.916 0 011.92-5.395c1-1.974 2.33-3.771 3.93-5.319a19.576 19.576 0 016.28-4.025 22.706 22.706 0 018.75-1.615c2.32-.039 4.63.361 6.79 1.18 1.63.652 3.07 1.686 4.2 3.011a11.136 11.136 0 012.14 4.063c.43 1.402.65 2.857.66 4.32.02 1.248-.07 2.496-.28 3.729l.02.051z" stroke="#841819" stroke-width="2" mask="url(#path-21-inside-1)"/><defs><filter id="filter0_i" x="0" y=".023" width="166.189" height="204.47" filterUnits="userSpaceOnUse" color-interpolation-filters="sRGB"><feFlood flood-opacity="0" result="BackgroundImageFix"/><feBlend in="SourceGraphic" in2="BackgroundImageFix" result="shape"/><feColorMatrix in="SourceAlpha" values="0 0 0 0 0 0 0 0 0 0 0 0 0 0 0 0 0 0 127 0" result="hardAlpha"/><feOffset/><feGaussianBlur stdDeviation="10"/><feComposite in2="hardAlpha" operator="arithmetic" k2="-1" k3="1"/><feColorMatrix values="0 0 0 0 0 0 0 0 0 0 0 0 0 0 0 0 0 0 0.5 0"/><feBlend in2="shape" result="effect1_innerShadow"/></filter><filter id="filter1_i" x="123.032" y="52.058" width="110.144" height="153.737" filterUnits="userSpaceOnUse" color-interpolation-filters="sRGB"><feFlood flood-opacity="0" result="BackgroundImageFix"/><feBlend in="SourceGraphic" in2="BackgroundImageFix" result="shape"/><feColorMatrix in="SourceAlpha" values="0 0 0 0 0 0 0 0 0 0 0 0 0 0 0 0 0 0 127 0" result="hardAlpha"/><feOffset/><feGaussianBlur stdDeviation="10"/><feComposite in2="hardAlpha" operator="arithmetic" k2="-1" k3="1"/><feColorMatrix values="0 0 0 0 0 0 0 0 0 0 0 0 0 0 0 0 0 0 0.5 0"/><feBlend in2="shape" result="effect1_innerShadow"/></filter><filter id="filter2_i" x="804.86" y="50.733" width="110.156" height="153.737" filterUnits="userSpaceOnUse" color-interpolation-filters="sRGB"><feFlood flood-opacity="0" result="BackgroundImageFix"/><feBlend in="SourceGraphic" in2="BackgroundImageFix" result="shape"/><feColorMatrix in="SourceAlpha" values="0 0 0 0 0 0 0 0 0 0 0 0 0 0 0 0 0 0 127 0" result="hardAlpha"/><feOffset/><feGaussianBlur stdDeviation="10"/><feComposite in2="hardAlpha" operator="arithmetic" k2="-1" k3="1"/><feColorMatrix values="0 0 0 0 0 0 0 0 0 0 0 0 0 0 0 0 0 0 0.5 0"/><feBlend in2="shape" result="effect1_innerShadow"/></filter><filter id="filter3_i" x="978.354" y="50.672" width="117.646" height="153.785" filterUnits="userSpaceOnUse" color-interpolation-filters="sRGB"><feFlood flood-opacity="0" result="BackgroundImageFix"/><feBlend in="SourceGraphic" in2="BackgroundImageFix" result="shape"/><feColorMatrix in="SourceAlpha" values="0 0 0 0 0 0 0 0 0 0 0 0 0 0 0 0 0 0 127 0" result="hardAlpha"/><feOffset/><feGaussianBlur stdDeviation="10"/><feComposite in2="hardAlpha" operator="arithmetic" k2="-1" k3="1"/><feColorMatrix values="0 0 0 0 0 0 0 0 0 0 0 0 0 0 0 0 0 0 0.5 0"/><feBlend in2="shape" result="effect1_innerShadow"/></filter><filter id="filter4_i" x="223.347" y="59.848" width="142.677" height="149.773" filterUnits="userSpaceOnUse" color-interpolation-filters="sRGB"><feFlood flood-opacity="0" result="BackgroundImageFix"/><feBlend in="SourceGraphic" in2="BackgroundImageFix" result="shape"/><feColorMatrix in="SourceAlpha" values="0 0 0 0 0 0 0 0 0 0 0 0 0 0 0 0 0 0 127 0" result="hardAlpha"/><feOffset/><feGaussianBlur stdDeviation="10"/><feComposite in2="hardAlpha" operator="arithmetic" k2="-1" k3="1"/><feColorMatrix values="0 0 0 0 0 0 0 0 0 0 0 0 0 0 0 0 0 0 0.5 0"/><feBlend in2="shape" result="effect1_innerShadow"/></filter><filter id="filter5_i" x="528.949" y="0" width="166.152" height="204.495" filterUnits="userSpaceOnUse" color-interpolation-filters="sRGB"><feFlood flood-opacity="0" result="BackgroundImageFix"/><feBlend in="SourceGraphic" in2="BackgroundImageFix" result="shape"/><feColorMatrix in="SourceAlpha" values="0 0 0 0 0 0 0 0 0 0 0 0 0 0 0 0 0 0 127 0" result="hardAlpha"/><feOffset/><feGaussianBlur stdDeviation="10"/><feComposite in2="hardAlpha" operator="arithmetic" k2="-1" k3="1"/><feColorMatrix values="0 0 0 0 0 0 0 0 0 0 0 0 0 0 0 0 0 0 0.5 0"/><feBlend in2="shape" result="effect1_innerShadow"/></filter><filter id="filter6_i" x="453.776" y="67.287" width="89.164" height="137.208" filterUnits="userSpaceOnUse" color-interpolation-filters="sRGB"><feFlood flood-opacity="0" result="BackgroundImageFix"/><feBlend in="SourceGraphic" in2="BackgroundImageFix" result="shape"/><feColorMatrix in="SourceAlpha" values="0 0 0 0 0 0 0 0 0 0 0 0 0 0 0 0 0 0 127 0" result="hardAlpha"/><feOffset/><feGaussianBlur stdDeviation="10"/><feComposite in2="hardAlpha" operator="arithmetic" k2="-1" k3="1"/><feColorMatrix values="0 0 0 0 0 0 0 0 0 0 0 0 0 0 0 0 0 0 0.5 0"/><feBlend in2="shape" result="effect1_innerShadow"/></filter><filter id="filter7_i" x="358.173" y=".943" width="121.779" height="204.865" filterUnits="userSpaceOnUse" color-interpolation-filters="sRGB"><feFlood flood-opacity="0" result="BackgroundImageFix"/><feBlend in="SourceGraphic" in2="BackgroundImageFix" result="shape"/><feColorMatrix in="SourceAlpha" values="0 0 0 0 0 0 0 0 0 0 0 0 0 0 0 0 0 0 127 0" result="hardAlpha"/><feOffset/><feGaussianBlur stdDeviation="10"/><feComposite in2="hardAlpha" operator="arithmetic" k2="-1" k3="1"/><feColorMatrix values="0 0 0 0 0 0 0 0 0 0 0 0 0 0 0 0 0 0 0.5 0"/><feBlend in2="shape" result="effect1_innerShadow"/></filter><filter id="filter8_i" x="907.238" y="5.503" width="93.223" height="200.304" filterUnits="userSpaceOnUse" color-interpolation-filters="sRGB"><feFlood flood-opacity="0" result="BackgroundImageFix"/><feBlend in="SourceGraphic" in2="BackgroundImageFix" result="shape"/><feColorMatrix in="SourceAlpha" values="0 0 0 0 0 0 0 0 0 0 0 0 0 0 0 0 0 0 127 0" result="hardAlpha"/><feOffset/><feGaussianBlur stdDeviation="10"/><feComposite in2="hardAlpha" operator="arithmetic" k2="-1" k3="1"/><feColorMatrix values="0 0 0 0 0 0 0 0 0 0 0 0 0 0 0 0 0 0 0.5 0"/><feBlend in2="shape" result="effect1_innerShadow"/></filter><filter id="filter9_i" x="669.078" y="47.835" width="142.617" height="156.66" filterUnits="userSpaceOnUse" color-interpolation-filters="sRGB"><feFlood flood-opacity="0" result="BackgroundImageFix"/><feBlend in="SourceGraphic" in2="BackgroundImageFix" result="shape"/><feColorMatrix in="SourceAlpha" values="0 0 0 0 0 0 0 0 0 0 0 0 0 0 0 0 0 0 127 0" result="hardAlpha"/><feOffset/><feGaussianBlur stdDeviation="10"/><feComposite in2="hardAlpha" operator="arithmetic" k2="-1" k3="1"/><feColorMatrix values="0 0 0 0 0 0 0 0 0 0 0 0 0 0 0 0 0 0 0.5 0"/><feBlend in2="shape" result="effect1_innerShadow"/></filter><filter id="filter10_i" x="516.03" y="235.951" width="571.865" height="99.964" filterUnits="userSpaceOnUse" color-interpolation-filters="sRGB"><feFlood flood-opacity="0" result="BackgroundImageFix"/><feBlend in="SourceGraphic" in2="BackgroundImageFix" result="shape"/><feColorMatrix in="SourceAlpha" values="0 0 0 0 0 0 0 0 0 0 0 0 0 0 0 0 0 0 127 0" result="hardAlpha"/><feOffset/><feGaussianBlur stdDeviation="10"/><feComposite in2="hardAlpha" operator="arithmetic" k2="-1" k3="1"/><feColorMatrix values="0 0 0 0 0 0 0 0 0 0 0 0 0 0 0 0 0 0 0.5 0"/><feBlend in2="shape" result="effect1_innerShadow"/></filter></defs></svg>