<svg width="1217" height="373" viewBox="0 0 1217 373" fill="none" xmlns="http://www.w3.org/2000/svg"><g filter="url(#filter0_i)"><path fill-rule="evenodd" clip-rule="evenodd" d="M71.012 227.068H0L27.593 74.366a90.32 90.32 0 0126.324-49.468A90.605 90.605 0 01104.39.416a72.741 72.741 0 0130.572 3.353 72.658 72.658 0 0126.439 15.684 72.466 72.466 0 0117.561 25.201 72.35 72.35 0 015.536 30.198v2.165l-3.643 3.068-6.954 6.941-6.314 7.496-5.674 7.913-4.938 8.26-4.172 8.524-3.366 8.759-2.531 8.885-2.656 14.798a82.322 82.322 0 01-37.996 14.215c-4.06.426-8.148.528-12.225.306l13.616-74.02a14.202 14.202 0 006.811-6.549 14.159 14.159 0 001.186-9.365 14.185 14.185 0 00-4.964-8.036 14.228 14.228 0 00-8.916-3.147h-.793a14.228 14.228 0 00-8.5 3.431 14.183 14.183 0 00-4.633 7.9A14.162 14.162 0 0089 85.473a14.2 14.2 0 006.476 6.48l-13.213 72.548-.403 2.277-2.378 13.16-8.47 47.129z" fill="#841819"/></g><path d="M1.197 226.068l27.38-151.524v-.006a89.32 89.32 0 0126.034-48.92 89.605 89.605 0 0149.9-24.209 71.742 71.742 0 0130.135 3.309 71.656 71.656 0 0126.074 15.468 71.46 71.46 0 0117.319 24.853h0a71.356 71.356 0 015.46 29.78l-.001.016v1.717l-3.287 2.768-.033.028-.03.03-6.954 6.94-.03.031-.028.033-6.314 7.496-.025.03-.023.032-5.674 7.913-.024.033-.022.036-4.937 8.26-.021.036-.019.037-4.172 8.524-.02.04-.015.041-3.366 8.76-.016.041-.012.043-2.532 8.885-.013.048-.009.049-2.583 14.389a81.334 81.334 0 01-37.191 13.807c-3.63.381-7.282.499-10.928.355l13.316-72.391a15.205 15.205 0 006.814-6.784 15.172 15.172 0 00-4.044-18.629l-.628.78.628-.78a15.23 15.23 0 00-9.543-3.368h-.822l-.027.001a15.228 15.228 0 00-9.099 3.673h0a15.183 15.183 0 00-4.96 8.456 15.163 15.163 0 001.247 9.72 15.199 15.199 0 006.258 6.584l-13.08 71.824-.001.004-.403 2.274v.003l-2.378 13.157v.001l-8.322 46.306H1.196z" stroke="#841819" stroke-width="2"/><g filter="url(#filter1_i)"><path fill-rule="evenodd" clip-rule="evenodd" d="M258.918 58.377l-12.656 73.574c-2.016-1.096-1.641-1.707-6.8-1.707a19.58 19.58 0 00-10.428 4.576 19.532 19.532 0 00-6.109 9.598l-15.298 84.097h-71.012l15.298-86.069c7.983-44.464 53.892-90.302 107.005-84.07z" fill="#841819"/></g><path d="M257.753 59.253l-12.226 71.072a5.592 5.592 0 00-1.147-.579c-.984-.355-2.337-.502-4.918-.502h-.06l-.059.007a20.586 20.586 0 00-10.96 4.81 20.525 20.525 0 00-6.421 10.089l-.012.044-.008.045-15.149 83.276h-68.985l15.089-84.892c3.947-21.98 17.286-44.356 36.242-60.461 18.696-15.883 42.784-25.608 68.614-22.909z" stroke="#841819" stroke-width="2"/><g filter="url(#filter2_i)"><path fill-rule="evenodd" clip-rule="evenodd" d="M1016.03 56.905l-12.64 73.575c-2.01-1.111-1.62-1.721-6.798-1.721a19.477 19.477 0 00-10.436 4.57 19.42 19.42 0 00-6.086 9.617l-15.299 84.098h-71.054l15.368-86.069c7.928-44.464 53.878-90.303 106.945-84.07z" fill="#192D52"/></g><path d="M1014.87 57.782l-12.21 71.062a5.764 5.764 0 00-1.14-.581c-.99-.358-2.341-.504-4.928-.504h-.058l-.058.006a20.494 20.494 0 00-10.972 4.805l.652.759-.652-.759a20.435 20.435 0 00-6.399 10.112l-.011.042-.008.043-15.149 83.277h-69.025l15.158-84.893v-.001c3.918-21.979 17.254-44.355 36.208-60.46 18.694-15.882 42.782-25.607 68.592-22.908z" stroke="#192D52" stroke-width="2"/><g filter="url(#filter3_i)"><path fill-rule="evenodd" clip-rule="evenodd" d="M1098.2 159.438h25.94c6.76 0 9.21-9.717 2.46-17.505a48.764 48.764 0 01-12.12-22.765 48.764 48.764 0 011.19-25.751 48.732 48.732 0 0114.17-21.556 48.935 48.935 0 0123.18-11.347c5.22-1.33 10.5-2.387 15.82-3.165 4.88-.718 9.81-1.08 14.74-1.082H1217l-11.53 65.939h-26.98c-4.44 0-10.04 6.83-1.2 15.201 21.74 20.532 27.9 71.909-14.32 84.07a138.167 138.167 0 01-38.66 5.553h-37.94l11.83-67.592z" fill="#192D52"/></g><path d="M1124.3 226.03h-36.74l11.48-65.592h25.1c3.98 0 6.6-2.899 7.28-6.655.67-3.741-.52-8.416-4.06-12.505l-.02-.016-.01-.016a47.725 47.725 0 01-11.87-22.297h0a47.615 47.615 0 011.16-25.224 47.825 47.825 0 0113.88-21.113h0a47.898 47.898 0 0122.71-11.115l.03-.006.03-.008a152.922 152.922 0 0115.71-3.144h0a100.5 100.5 0 0114.6-1.072s0 0 0 0h32.23l-11.18 63.939h-26.14c-2.68 0-5.56 2.019-6.53 5.167-1 3.238.05 7.413 4.65 11.76v.001c10.63 10.046 17.51 27.727 16.51 44.387-1 16.58-9.79 32.051-30.43 37.995v.001a137.145 137.145 0 01-38.39 5.513z" stroke="#192D52" stroke-width="2"/><g filter="url(#filter4_i)"><path fill-rule="evenodd" clip-rule="evenodd" d="M326.287 66.844a83.98 83.98 0 015.813-.388l-13.407 72.784a14.235 14.235 0 00-6.834 6.503 14.199 14.199 0 00-1.264 9.34 14.223 14.223 0 004.863 8.079 14.277 14.277 0 0017.816.306 14.227 14.227 0 005.137-7.909 14.196 14.196 0 00-.941-9.378 14.243 14.243 0 00-6.608-6.733l13.171-72.368a73.244 73.244 0 0145.273 25.303 72.987 72.987 0 0117.103 48.897 90.806 90.806 0 01-21.924 60.265 91.123 91.123 0 01-56.321 30.829 72.748 72.748 0 01-30.574-3.359 72.683 72.683 0 01-26.44-15.687 72.513 72.513 0 01-17.565-25.204 72.378 72.378 0 01-5.542-30.199 90.824 90.824 0 0121.936-60.25 91.14 91.14 0 0156.308-30.83z" fill="#841819"/></g><path d="M309.615 155.285l.001.001a15.224 15.224 0 005.205 8.647 15.277 15.277 0 0019.064.327v-.001a15.224 15.224 0 005.498-8.464h0a15.201 15.201 0 00-1.008-10.039h0a15.244 15.244 0 00-6.397-6.853l12.864-70.684a72.245 72.245 0 0143.699 24.807 71.99 71.99 0 0116.868 48.228l-.001.019.001.019a89.804 89.804 0 01-21.683 59.601 90.113 90.113 0 01-55.684 30.488 71.745 71.745 0 01-30.135-3.315l-.317.949.317-.949a71.663 71.663 0 01-26.076-15.471 71.512 71.512 0 01-17.323-24.856 71.385 71.385 0 01-5.466-29.782l.001-.022-.001-.022a89.83 89.83 0 0121.696-59.587 90.138 90.138 0 0155.672-30.489 76.97 76.97 0 014.48-.33l-13.087 71.047a15.227 15.227 0 00-8.188 16.731z" stroke="#841819" stroke-width="2"/><g filter="url(#filter5_i)"><path fill-rule="evenodd" clip-rule="evenodd" d="M658.4 227.071h-71.054l27.607-152.702a90.306 90.306 0 0126.298-49.476A90.592 90.592 0 01691.709.39a72.724 72.724 0 0130.569 3.353 72.616 72.616 0 0126.435 15.685 72.438 72.438 0 0117.559 25.201 72.343 72.343 0 015.531 30.197 86.693 86.693 0 01-.974 14.132 87.484 87.484 0 00-3.254 2.776 137.756 137.756 0 00-7.997 7.608 112.218 112.218 0 00-8.678 10.536 101.696 101.696 0 00-4.34 6.941c-1.362 2.402-2.489 4.859-3.615 7.413-1.127 2.554-1.906 5.22-2.782 7.941-.876 2.72-1.293 5.552-1.78 8.454a104.513 104.513 0 00-.668 6.483 83.41 83.41 0 01-44.17 18.865 79.143 79.143 0 01-12.267.32l13.63-74.02a14.186 14.186 0 006.785-6.492 14.154 14.154 0 00-3.619-17.334 14.214 14.214 0 00-17.737-.284 14.153 14.153 0 00-4.173 17.21 14.193 14.193 0 006.575 6.706l-13.171 72.562-1.266 6.941-1.529 8.496-8.373 46.99z" fill="#192D52"/></g><path d="M588.543 226.071l27.394-151.524.001-.006a89.3 89.3 0 0126.007-48.928 89.59 89.59 0 0149.884-24.229 71.723 71.723 0 0130.132 3.309 71.624 71.624 0 0126.072 15.468l.68-.732-.68.732a71.456 71.456 0 0117.316 24.854h0a71.332 71.332 0 015.454 29.78v.045a85.685 85.685 0 01-.906 13.588 88.42 88.42 0 00-2.985 2.559 139.07 139.07 0 00-8.052 7.66l-.007.006-.007.008a113.134 113.134 0 00-8.755 10.63l-.01.013-.009.014a102.765 102.765 0 00-4.381 7.008c-1.389 2.448-2.533 4.944-3.661 7.504-.957 2.168-1.67 4.42-2.379 6.656-.146.461-.292.922-.44 1.381-.805 2.501-1.234 5.091-1.658 7.655l-.156.94-.003.017-.002.016a105.3 105.3 0 00-.643 6.118 82.408 82.408 0 01-43.311 18.369 78.164 78.164 0 01-10.968.366l13.329-72.388a15.186 15.186 0 006.786-6.723 15.15 15.15 0 001.323-9.958 15.169 15.169 0 00-5.197-8.6 15.217 15.217 0 00-18.986-.304 15.171 15.171 0 00-5.47 8.43 15.147 15.147 0 001.004 9.996 15.187 15.187 0 006.364 6.825l-13.039 71.838v.001l-1.265 6.94-.001.003-1.53 8.495v.002l-8.225 46.166h-69.02z" stroke="#192D52" stroke-width="2"/><g filter="url(#filter6_i)"><path fill-rule="evenodd" clip-rule="evenodd" d="M574.927 227.071h-71.054l28.288-152.355h70.72L574.927 227.07z" fill="#841819"/></g><path d="M601.681 75.716L574.094 226.07h-69.018l27.917-150.355h68.688z" stroke="#841819" stroke-width="2"/><g filter="url(#filter7_i)"><path fill-rule="evenodd" clip-rule="evenodd" d="M505.473 166.657l12.391-69.813-25.242.25 1.738-9.44a19.435 19.435 0 016.092-9.621 19.49 19.49 0 0110.445-4.567 17.872 17.872 0 019.387 1.722L532.94 1.613c-.834-.097-4.256-.18-5.09-.25-52.042-4.54-96.589 40.577-104.446 84.32l-25.688 142.846h71.054l11.224-61.72 25.479-.152z" fill="#841819"/></g><path d="M519.516 73.755a18.871 18.871 0 00-8.708-1.285l-.014.002-.013.001a20.488 20.488 0 00-10.98 4.801 20.426 20.426 0 00-6.405 10.116l-.011.041-.008.042-1.739 9.44-.219 1.193 1.213-.012 24.037-.238-12.035 67.806-24.646.147-.83.005-.148.817-11.074 60.898h-69.024l25.476-141.67h0c3.884-21.623 16.855-43.64 35.325-59.687 18.464-16.04 42.352-26.054 68.05-23.813h.004a65.28 65.28 0 002.151.1c.145.007.292.012.438.018.506.02.995.04 1.411.06l-12.251 71.218z" stroke="#841819" stroke-width="2"/><g filter="url(#filter8_i)"><path fill-rule="evenodd" clip-rule="evenodd" d="M1098.53 124.455l12.38-69.813-16.69.167 9.38-48.698h-68.79l-23.96 124.605c-5.57 31.054-5.29 53.293 7.48 70.59a66.94 66.94 0 0023.44 19.842 67.058 67.058 0 0029.85 7.298c1.03 0 6.43.069 7.49.083l12.51-70.007c-.58 0-5.56.111-6.1.111-15.3 0-8.35-13.48-5.9-27.126l1.39-6.941 17.52-.111z" fill="#192D52"/></g><path d="M1071.63 227.446c.87 0 4.76.048 6.64.072l12.15-67.977-1.85.036-.1.002c-1.34.027-2.68.054-2.95.054-3.94 0-6.7-.864-8.43-2.616-1.74-1.759-2.24-4.201-2.18-6.856.07-2.654.72-5.712 1.47-8.89.18-.733.36-1.473.54-2.218.62-2.525 1.25-5.117 1.72-7.722v-.02l1.39-6.941.16-.799.81-.005 16.7-.106 12.02-67.806-15.49.155-1.22.012.23-1.201 9.15-47.51h-66.75l-23.81 123.782-.98-.176m60.78 96.73s0 0 0 0l-.01 1v-1h.01zm0 0a65.983 65.983 0 01-52.5-26.734m0 0c-12.5-16.934-12.86-38.791-7.3-69.813v.006l-.98-.189m8.28 69.996l-.8.594m.8-.594s0 0 0 0l-.8.594m-7.48-70.59l23.96-124.605-16.48 195.195m-7.48-70.59c-5.57 31.054-5.29 53.293 7.48 70.59" stroke="#192D52" stroke-width="2"/><g filter="url(#filter9_i)"><path fill-rule="evenodd" clip-rule="evenodd" d="M901.297 135.977a86.528 86.528 0 01-1.391 16.811l-13.727 74.283h-63.154c-43.823 0-79.58-28.861-80.08-74.449a77.383 77.383 0 0110.535-37.098 77.569 77.569 0 0127.141-27.44l28.079 53.113a14.181 14.181 0 003.469 17.396 14.248 14.248 0 0017.762.451 14.196 14.196 0 005.196-7.837 14.164 14.164 0 00-.844-9.359 14.216 14.216 0 00-6.514-6.785 14.257 14.257 0 00-9.334-1.237l-40.22-75.477.319-.111c62.626-17.006 121.956 8.19 122.763 77.739z" fill="#192D52"/></g><path d="M900.297 135.992v-.003c-.4-34.455-15.27-57.795-37.691-70.469-22.26-12.584-52.106-14.732-82.929-6.554l39.298 73.745a15.256 15.256 0 019.245 1.46h.001a15.216 15.216 0 016.972 7.262 15.173 15.173 0 01.904 10.02 15.192 15.192 0 01-5.562 8.388 15.243 15.243 0 01-9.59 3.084 15.245 15.245 0 01-9.42-3.567h0a15.202 15.202 0 01-5.127-8.662h0a15.178 15.178 0 011.178-9.485l-27.343-51.72a76.57 76.57 0 00-25.89 26.537 76.4 76.4 0 00-10.398 36.601c.503 44.936 35.711 73.442 79.08 73.442h62.322l13.575-73.462 1.375-16.617zm0 0a85.543 85.543 0 01-1.374 16.615l.983.181a86.528 86.528 0 001.391-16.811l-1 .015z" stroke="#192D52" stroke-width="2"/><mask id="path-21-inside-1" fill="#fff"><path fill-rule="evenodd" clip-rule="evenodd" d="M675.843 336.218l13.803-74.204h-26.545l-14.123 76.026a19.796 19.796 0 01-1.919 5.564 19.467 19.467 0 01-4.626 5.693 24.01 24.01 0 01-8.363 4.269 43.608 43.608 0 01-13.09 1.751 37.632 37.632 0 01-12.596-1.751 13.806 13.806 0 01-6.56-4.269 10.815 10.815 0 01-2.269-5.693 17.561 17.561 0 01.247-5.564l14.123-75.969h-26.573l-13.818 74.204a27.888 27.888 0 001.047 14.687 27.708 27.708 0 008.48 11.641 42.29 42.29 0 0014.967 7.643 70.184 70.184 0 0020.493 2.747 83.69 83.69 0 0021.818-2.662 59.076 59.076 0 0017.265-7.557 43.968 43.968 0 0012.057-11.613 38.616 38.616 0 006.138-14.886l.044-.057zm41.075 33.345l6.647-35.707h9.716l18.035 35.707h28.276l-24.145-45.442 37.002-34.469h-27.431l-31.752 30.555h-7.156l10.807-58.122h-24.872l-19.926 107.478h24.799zm140.052-61.196a75.104 75.104 0 00-8.363-.441 42.773 42.773 0 00-7.272.569 27.546 27.546 0 00-7.273 2.263 18.13 18.13 0 00-6.036 4.753 18.474 18.474 0 00-3.52 8.041l-8.567 46.053h-24.552l14.865-79.981h24.625l-2.909 15.498a32.762 32.762 0 012.792-4.156 20.386 20.386 0 014.088-3.728 59.325 59.325 0 017.272-4.355c1.382-.769 2.822-1.424 4.363-2.178a30.547 30.547 0 015.077-1.708 24.608 24.608 0 015.818-.683c.487-.008.973.025 1.454.1.556.036 1.11.102 1.658.199l-3.651 19.754h.131zm84.855 61.196l.524-2.847a12.232 12.232 0 01-3.229-4.269 9.366 9.366 0 01-.64-5.166l8.13-43.677a19.24 19.24 0 00-2.138-14.687c-2.944-4.045-7.258-6.938-12.174-8.169a71.167 71.167 0 00-20.683-2.505 83.102 83.102 0 00-9.265.456 64.09 64.09 0 00-10.879 2.092 42.111 42.111 0 00-10.705 4.625 29.96 29.96 0 00-8.829 8.112 31.47 31.47 0 00-5.222 12.581h23.272c.406-1.657.98-3.268 1.716-4.811a16.727 16.727 0 013.346-4.668 16.581 16.581 0 015.89-3.572 27.705 27.705 0 019.222-1.423 21.966 21.966 0 018.378 1.352 8.366 8.366 0 014.363 3.487 7.433 7.433 0 01.626 4.896 10.038 10.038 0 01-2.487 4.867 11.666 11.666 0 01-5.28 3.102 228.276 228.276 0 01-13.978 3.188c-4.509.883-8.843 1.736-12.901 2.576a97.886 97.886 0 00-11.345 3.017 40.326 40.326 0 00-9.324 4.412 23.553 23.553 0 00-6.821 6.874 27.647 27.647 0 00-3.927 10.332 19.683 19.683 0 001.382 13.022c1.906 3.464 4.994 6.164 8.727 7.628a37.082 37.082 0 0014.283 2.491 53.178 53.178 0 0012.188-1.423 48.275 48.275 0 009.483-3.302 49.488 49.488 0 006.778-3.772 212.463 212.463 0 004.102-2.846v.356a2.222 2.222 0 01-.073.37 10.881 10.881 0 000 3.942 9.47 9.47 0 001.266 3.302l26.224.057zm-23.243-31.523a25.69 25.69 0 01-4.945 11.513 20.598 20.598 0 01-8.829 6.233 32.942 32.942 0 01-11.635 1.865 13.44 13.44 0 01-5.906-1.139 7.937 7.937 0 01-3.243-2.846 8.563 8.563 0 01-1.193-3.643 11.571 11.571 0 01.116-3.558 9.177 9.177 0 012.182-4.156 17.276 17.276 0 014.596-3.743 19.089 19.089 0 016.313-2.277c2.196-.398 4.625-.84 7.272-1.352 2.647-.512 5.426-1.167 8.291-1.878a85.227 85.227 0 008.363-2.534l-1.454 7.529.072-.014zm82.148-57.539l3.43-18.501h-24.853l-3.418 18.501h24.841zm-16.579 89.119l14.865-79.982h-24.727l-14.981 79.925 24.843.057zm109.199 0l9.97-53.568a23.52 23.52 0 00-1.68-16.096c-2.48-4.233-6.48-7.408-11.22-8.909a55.961 55.961 0 00-18.91-2.718c-3.27.015-6.51.557-9.6 1.608a36.464 36.464 0 00-9.11 4.582 37.566 37.566 0 00-7.75 7.23l2.24-12.111h-24.54l-14.88 79.982h24.6l9.61-51.647c.31-1.52.91-2.97 1.78-4.269a16.445 16.445 0 014.13-4.37 22.604 22.604 0 016.99-3.358 36.101 36.101 0 0110.33-1.352c2.87-.117 5.74.338 8.42 1.338a6.99 6.99 0 013.9 3.472 9.95 9.95 0 01.9 4.953 49.594 49.594 0 01-.78 5.692l-9.22 49.583 24.82-.042zm113.67-38.952c.56-2.793.88-5.625.95-8.468.13-2.972-.14-5.948-.79-8.852a33.654 33.654 0 00-3.63-9.251 27.46 27.46 0 00-4.54-5.821 31.63 31.63 0 00-6.9-5.066 39.117 39.117 0 00-9.61-3.529 52.708 52.708 0 00-12.51-1.424c-6.1-.054-12.18.796-18.02 2.519a48.485 48.485 0 00-15.51 7.97 46.563 46.563 0 00-11.86 13.904 63.61 63.61 0 00-7.16 20.309 40.466 40.466 0 00.16 17.078 27.42 27.42 0 006.95 12.524 31.744 31.744 0 0012.53 7.756 51.186 51.186 0 0016.94 2.619 66.87 66.87 0 0021.32-3.288 51.231 51.231 0 0016.67-9.037 39.282 39.282 0 0010.66-13.634h-24.42a13.252 13.252 0 01-2.91 3.743 27.413 27.413 0 01-4.87 3.458 28.283 28.283 0 01-5.93 2.576c-2.07.642-4.22.972-6.39.982-2.93.08-5.84-.494-8.51-1.679a14.868 14.868 0 01-5.54-4.27 14.737 14.737 0 01-2.73-5.877 15.123 15.123 0 01-.13-6.248c0-.427.14-.925.26-1.58.11-.654.16-1.252.27-1.878.09-.53.22-1.049.41-1.551h63.9c.07-.483.18-.958.33-1.424.1-.384.16-.768.26-1.138.1-.37.25-.868.35-1.423zm-24.35-8.411h-38.21c.41-2.091 1.13-4.11 2.14-5.992a22.113 22.113 0 014.37-5.906c2-1.917 4.37-3.435 6.96-4.469a25.268 25.268 0 019.72-1.793c2.58-.044 5.14.4 7.55 1.31a11.88 11.88 0 014.65 3.344 12.59 12.59 0 012.39 4.511c.47 1.557.72 3.173.72 4.796.03 1.387-.07 2.773-.3 4.142l.01.057z"/></mask><g filter="url(#filter10_i)"><path fill-rule="evenodd" clip-rule="evenodd" d="M675.843 336.218l13.803-74.204h-26.545l-14.123 76.026a19.796 19.796 0 01-1.919 5.564 19.467 19.467 0 01-4.626 5.693 24.01 24.01 0 01-8.363 4.269 43.608 43.608 0 01-13.09 1.751 37.632 37.632 0 01-12.596-1.751 13.806 13.806 0 01-6.56-4.269 10.815 10.815 0 01-2.269-5.693 17.561 17.561 0 01.247-5.564l14.123-75.969h-26.573l-13.818 74.204a27.888 27.888 0 001.047 14.687 27.708 27.708 0 008.48 11.641 42.29 42.29 0 0014.967 7.643 70.184 70.184 0 0020.493 2.747 83.69 83.69 0 0021.818-2.662 59.076 59.076 0 0017.265-7.557 43.968 43.968 0 0012.057-11.613 38.616 38.616 0 006.138-14.886l.044-.057zm41.075 33.345l6.647-35.707h9.716l18.035 35.707h28.276l-24.145-45.442 37.002-34.469h-27.431l-31.752 30.555h-7.156l10.807-58.122h-24.872l-19.926 107.478h24.799zm140.052-61.196a75.104 75.104 0 00-8.363-.441 42.773 42.773 0 00-7.272.569 27.546 27.546 0 00-7.273 2.263 18.13 18.13 0 00-6.036 4.753 18.474 18.474 0 00-3.52 8.041l-8.567 46.053h-24.552l14.865-79.981h24.625l-2.909 15.498a32.762 32.762 0 012.792-4.156 20.386 20.386 0 014.088-3.728 59.325 59.325 0 017.272-4.355c1.382-.769 2.822-1.424 4.363-2.178a30.547 30.547 0 015.077-1.708 24.608 24.608 0 015.818-.683c.487-.008.973.025 1.454.1.556.036 1.11.102 1.658.199l-3.651 19.754h.131zm84.855 61.196l.524-2.847a12.232 12.232 0 01-3.229-4.269 9.366 9.366 0 01-.64-5.166l8.13-43.677a19.24 19.24 0 00-2.138-14.687c-2.944-4.045-7.258-6.938-12.174-8.169a71.167 71.167 0 00-20.683-2.505 83.102 83.102 0 00-9.265.456 64.09 64.09 0 00-10.879 2.092 42.111 42.111 0 00-10.705 4.625 29.96 29.96 0 00-8.829 8.112 31.47 31.47 0 00-5.222 12.581h23.272c.406-1.657.98-3.268 1.716-4.811a16.727 16.727 0 013.346-4.668 16.581 16.581 0 015.89-3.572 27.705 27.705 0 019.222-1.423 21.966 21.966 0 018.378 1.352 8.366 8.366 0 014.363 3.487 7.433 7.433 0 01.626 4.896 10.038 10.038 0 01-2.487 4.867 11.666 11.666 0 01-5.28 3.102 228.276 228.276 0 01-13.978 3.188c-4.509.883-8.843 1.736-12.901 2.576a97.886 97.886 0 00-11.345 3.017 40.326 40.326 0 00-9.324 4.412 23.553 23.553 0 00-6.821 6.874 27.647 27.647 0 00-3.927 10.332 19.683 19.683 0 001.382 13.022c1.906 3.464 4.994 6.164 8.727 7.628a37.082 37.082 0 0014.283 2.491 53.178 53.178 0 0012.188-1.423 48.275 48.275 0 009.483-3.302 49.488 49.488 0 006.778-3.772 212.463 212.463 0 004.102-2.846v.356a2.222 2.222 0 01-.073.37 10.881 10.881 0 000 3.942 9.47 9.47 0 001.266 3.302l26.224.057zm-23.243-31.523a25.69 25.69 0 01-4.945 11.513 20.598 20.598 0 01-8.829 6.233 32.942 32.942 0 01-11.635 1.865 13.44 13.44 0 01-5.906-1.139 7.937 7.937 0 01-3.243-2.846 8.563 8.563 0 01-1.193-3.643 11.571 11.571 0 01.116-3.558 9.177 9.177 0 012.182-4.156 17.276 17.276 0 014.596-3.743 19.089 19.089 0 016.313-2.277c2.196-.398 4.625-.84 7.272-1.352 2.647-.512 5.426-1.167 8.291-1.878a85.227 85.227 0 008.363-2.534l-1.454 7.529.072-.014zm82.148-57.539l3.43-18.501h-24.853l-3.418 18.501h24.841zm-16.579 89.119l14.865-79.982h-24.727l-14.981 79.925 24.843.057zm109.199 0l9.97-53.568a23.52 23.52 0 00-1.68-16.096c-2.48-4.233-6.48-7.408-11.22-8.909a55.961 55.961 0 00-18.91-2.718c-3.27.015-6.51.557-9.6 1.608a36.464 36.464 0 00-9.11 4.582 37.566 37.566 0 00-7.75 7.23l2.24-12.111h-24.54l-14.88 79.982h24.6l9.61-51.647c.31-1.52.91-2.97 1.78-4.269a16.445 16.445 0 014.13-4.37 22.604 22.604 0 016.99-3.358 36.101 36.101 0 0110.33-1.352c2.87-.117 5.74.338 8.42 1.338a6.99 6.99 0 013.9 3.472 9.95 9.95 0 01.9 4.953 49.594 49.594 0 01-.78 5.692l-9.22 49.583 24.82-.042zm113.67-38.952c.56-2.793.88-5.625.95-8.468.13-2.972-.14-5.948-.79-8.852a33.654 33.654 0 00-3.63-9.251 27.46 27.46 0 00-4.54-5.821 31.63 31.63 0 00-6.9-5.066 39.117 39.117 0 00-9.61-3.529 52.708 52.708 0 00-12.51-1.424c-6.1-.054-12.18.796-18.02 2.519a48.485 48.485 0 00-15.51 7.97 46.563 46.563 0 00-11.86 13.904 63.61 63.61 0 00-7.16 20.309 40.466 40.466 0 00.16 17.078 27.42 27.42 0 006.95 12.524 31.744 31.744 0 0012.53 7.756 51.186 51.186 0 0016.94 2.619 66.87 66.87 0 0021.32-3.288 51.231 51.231 0 0016.67-9.037 39.282 39.282 0 0010.66-13.634h-24.42a13.252 13.252 0 01-2.91 3.743 27.413 27.413 0 01-4.87 3.458 28.283 28.283 0 01-5.93 2.576c-2.07.642-4.22.972-6.39.982-2.93.08-5.84-.494-8.51-1.679a14.868 14.868 0 01-5.54-4.27 14.737 14.737 0 01-2.73-5.877 15.123 15.123 0 01-.13-6.248c0-.427.14-.925.26-1.58.11-.654.16-1.252.27-1.878.09-.53.22-1.049.41-1.551h63.9c.07-.483.18-.958.33-1.424.1-.384.16-.768.26-1.138.1-.37.25-.868.35-1.423zm-24.35-8.411h-38.21c.41-2.091 1.13-4.11 2.14-5.992a22.113 22.113 0 014.37-5.906c2-1.917 4.37-3.435 6.96-4.469a25.268 25.268 0 019.72-1.793c2.58-.044 5.14.4 7.55 1.31a11.88 11.88 0 014.65 3.344 12.59 12.59 0 012.39 4.511c.47 1.557.72 3.173.72 4.796.03 1.387-.07 2.773-.3 4.142l.01.057z" fill="#841819"/></g><path clip-rule="evenodd" d="M675.843 336.218l13.803-74.204h-26.545l-14.123 76.026a19.796 19.796 0 01-1.919 5.564 19.467 19.467 0 01-4.626 5.693 24.01 24.01 0 01-8.363 4.269 43.608 43.608 0 01-13.09 1.751 37.632 37.632 0 01-12.596-1.751 13.806 13.806 0 01-6.56-4.269 10.815 10.815 0 01-2.269-5.693 17.561 17.561 0 01.247-5.564l14.123-75.969h-26.573l-13.818 74.204a27.888 27.888 0 001.047 14.687 27.708 27.708 0 008.48 11.641 42.29 42.29 0 0014.967 7.643 70.184 70.184 0 0020.493 2.747 83.69 83.69 0 0021.818-2.662 59.076 59.076 0 0017.265-7.557 43.968 43.968 0 0012.057-11.613 38.616 38.616 0 006.138-14.886l.044-.057zm41.075 33.345l6.647-35.707h9.716l18.035 35.707h28.276l-24.145-45.442 37.002-34.469h-27.431l-31.752 30.555h-7.156l10.807-58.122h-24.872l-19.926 107.478h24.799zm140.052-61.196a75.104 75.104 0 00-8.363-.441 42.773 42.773 0 00-7.272.569 27.546 27.546 0 00-7.273 2.263 18.13 18.13 0 00-6.036 4.753 18.474 18.474 0 00-3.52 8.041l-8.567 46.053h-24.552l14.865-79.981h24.625l-2.909 15.498a32.762 32.762 0 012.792-4.156 20.386 20.386 0 014.088-3.728 59.325 59.325 0 017.272-4.355c1.382-.769 2.822-1.424 4.363-2.178a30.547 30.547 0 015.077-1.708 24.608 24.608 0 015.818-.683c.487-.008.973.025 1.454.1.556.036 1.11.102 1.658.199l-3.651 19.754h.131zm84.855 61.196l.524-2.847a12.232 12.232 0 01-3.229-4.269 9.366 9.366 0 01-.64-5.166l8.13-43.677a19.24 19.24 0 00-2.138-14.687c-2.944-4.045-7.258-6.938-12.174-8.169a71.167 71.167 0 00-20.683-2.505 83.102 83.102 0 00-9.265.456 64.09 64.09 0 00-10.879 2.092 42.111 42.111 0 00-10.705 4.625 29.96 29.96 0 00-8.829 8.112 31.47 31.47 0 00-5.222 12.581h23.272c.406-1.657.98-3.268 1.716-4.811a16.727 16.727 0 013.346-4.668 16.581 16.581 0 015.89-3.572 27.705 27.705 0 019.222-1.423 21.966 21.966 0 018.378 1.352 8.366 8.366 0 014.363 3.487 7.433 7.433 0 01.626 4.896 10.038 10.038 0 01-2.487 4.867 11.666 11.666 0 01-5.28 3.102 228.276 228.276 0 01-13.978 3.188c-4.509.883-8.843 1.736-12.901 2.576a97.886 97.886 0 00-11.345 3.017 40.326 40.326 0 00-9.324 4.412 23.553 23.553 0 00-6.821 6.874 27.647 27.647 0 00-3.927 10.332 19.683 19.683 0 001.382 13.022c1.906 3.464 4.994 6.164 8.727 7.628a37.082 37.082 0 0014.283 2.491 53.178 53.178 0 0012.188-1.423 48.275 48.275 0 009.483-3.302 49.488 49.488 0 006.778-3.772 212.463 212.463 0 004.102-2.846v.356a2.222 2.222 0 01-.073.37 10.881 10.881 0 000 3.942 9.47 9.47 0 001.266 3.302l26.224.057zm-23.243-31.523a25.69 25.69 0 01-4.945 11.513 20.598 20.598 0 01-8.829 6.233 32.942 32.942 0 01-11.635 1.865 13.44 13.44 0 01-5.906-1.139 7.937 7.937 0 01-3.243-2.846 8.563 8.563 0 01-1.193-3.643 11.571 11.571 0 01.116-3.558 9.177 9.177 0 012.182-4.156 17.276 17.276 0 014.596-3.743 19.089 19.089 0 016.313-2.277c2.196-.398 4.625-.84 7.272-1.352 2.647-.512 5.426-1.167 8.291-1.878a85.227 85.227 0 008.363-2.534l-1.454 7.529.072-.014zm82.148-57.539l3.43-18.501h-24.853l-3.418 18.501h24.841zm-16.579 89.119l14.865-79.982h-24.727l-14.981 79.925 24.843.057zm109.199 0l9.97-53.568a23.52 23.52 0 00-1.68-16.096c-2.48-4.233-6.48-7.408-11.22-8.909a55.961 55.961 0 00-18.91-2.718c-3.27.015-6.51.557-9.6 1.608a36.464 36.464 0 00-9.11 4.582 37.566 37.566 0 00-7.75 7.23l2.24-12.111h-24.54l-14.88 79.982h24.6l9.61-51.647c.31-1.52.91-2.97 1.78-4.269a16.445 16.445 0 014.13-4.37 22.604 22.604 0 016.99-3.358 36.101 36.101 0 0110.33-1.352c2.87-.117 5.74.338 8.42 1.338a6.99 6.99 0 013.9 3.472 9.95 9.95 0 01.9 4.953 49.594 49.594 0 01-.78 5.692l-9.22 49.583 24.82-.042zm113.67-38.952c.56-2.793.88-5.625.95-8.468.13-2.972-.14-5.948-.79-8.852a33.654 33.654 0 00-3.63-9.251 27.46 27.46 0 00-4.54-5.821 31.63 31.63 0 00-6.9-5.066 39.117 39.117 0 00-9.61-3.529 52.708 52.708 0 00-12.51-1.424c-6.1-.054-12.18.796-18.02 2.519a48.485 48.485 0 00-15.51 7.97 46.563 46.563 0 00-11.86 13.904 63.61 63.61 0 00-7.16 20.309 40.466 40.466 0 00.16 17.078 27.42 27.42 0 006.95 12.524 31.744 31.744 0 0012.53 7.756 51.186 51.186 0 0016.94 2.619 66.87 66.87 0 0021.32-3.288 51.231 51.231 0 0016.67-9.037 39.282 39.282 0 0010.66-13.634h-24.42a13.252 13.252 0 01-2.91 3.743 27.413 27.413 0 01-4.87 3.458 28.283 28.283 0 01-5.93 2.576c-2.07.642-4.22.972-6.39.982-2.93.08-5.84-.494-8.51-1.679a14.868 14.868 0 01-5.54-4.27 14.737 14.737 0 01-2.73-5.877 15.123 15.123 0 01-.13-6.248c0-.427.14-.925.26-1.58.11-.654.16-1.252.27-1.878.09-.53.22-1.049.41-1.551h63.9c.07-.483.18-.958.33-1.424.1-.384.16-.768.26-1.138.1-.37.25-.868.35-1.423zm-24.35-8.411h-38.21c.41-2.091 1.13-4.11 2.14-5.992a22.113 22.113 0 014.37-5.906c2-1.917 4.37-3.435 6.96-4.469a25.268 25.268 0 019.72-1.793c2.58-.044 5.14.4 7.55 1.31a11.88 11.88 0 014.65 3.344 12.59 12.59 0 012.39 4.511c.47 1.557.72 3.173.72 4.796.03 1.387-.07 2.773-.3 4.142l.01.057z" stroke="#841819" stroke-width="2" mask="url(#path-21-inside-1)"/><defs><filter id="filter0_i" x="0" y=".025" width="184.537" height="227.043" filterUnits="userSpaceOnUse" color-interpolation-filters="sRGB"><feFlood flood-opacity="0" result="BackgroundImageFix"/><feBlend in="SourceGraphic" in2="BackgroundImageFix" result="shape"/><feColorMatrix in="SourceAlpha" values="0 0 0 0 0 0 0 0 0 0 0 0 0 0 0 0 0 0 127 0" result="hardAlpha"/><feOffset/><feGaussianBlur stdDeviation="10"/><feComposite in2="hardAlpha" operator="arithmetic" k2="-1" k3="1"/><feColorMatrix values="0 0 0 0 0 0 0 0 0 0 0 0 0 0 0 0 0 0 0.5 0"/><feBlend in2="shape" result="effect1_innerShadow"/></filter><filter id="filter1_i" x="136.615" y="57.805" width="122.304" height="170.71" filterUnits="userSpaceOnUse" color-interpolation-filters="sRGB"><feFlood flood-opacity="0" result="BackgroundImageFix"/><feBlend in="SourceGraphic" in2="BackgroundImageFix" result="shape"/><feColorMatrix in="SourceAlpha" values="0 0 0 0 0 0 0 0 0 0 0 0 0 0 0 0 0 0 127 0" result="hardAlpha"/><feOffset/><feGaussianBlur stdDeviation="10"/><feComposite in2="hardAlpha" operator="arithmetic" k2="-1" k3="1"/><feColorMatrix values="0 0 0 0 0 0 0 0 0 0 0 0 0 0 0 0 0 0 0.5 0"/><feBlend in2="shape" result="effect1_innerShadow"/></filter><filter id="filter2_i" x="893.717" y="56.334" width="122.318" height="170.71" filterUnits="userSpaceOnUse" color-interpolation-filters="sRGB"><feFlood flood-opacity="0" result="BackgroundImageFix"/><feBlend in="SourceGraphic" in2="BackgroundImageFix" result="shape"/><feColorMatrix in="SourceAlpha" values="0 0 0 0 0 0 0 0 0 0 0 0 0 0 0 0 0 0 127 0" result="hardAlpha"/><feOffset/><feGaussianBlur stdDeviation="10"/><feComposite in2="hardAlpha" operator="arithmetic" k2="-1" k3="1"/><feColorMatrix values="0 0 0 0 0 0 0 0 0 0 0 0 0 0 0 0 0 0 0.5 0"/><feBlend in2="shape" result="effect1_innerShadow"/></filter><filter id="filter3_i" x="1086.37" y="56.267" width="130.634" height="170.763" filterUnits="userSpaceOnUse" color-interpolation-filters="sRGB"><feFlood flood-opacity="0" result="BackgroundImageFix"/><feBlend in="SourceGraphic" in2="BackgroundImageFix" result="shape"/><feColorMatrix in="SourceAlpha" values="0 0 0 0 0 0 0 0 0 0 0 0 0 0 0 0 0 0 127 0" result="hardAlpha"/><feOffset/><feGaussianBlur stdDeviation="10"/><feComposite in2="hardAlpha" operator="arithmetic" k2="-1" k3="1"/><feColorMatrix values="0 0 0 0 0 0 0 0 0 0 0 0 0 0 0 0 0 0 0.5 0"/><feBlend in2="shape" result="effect1_innerShadow"/></filter><filter id="filter4_i" x="248.005" y="66.456" width="158.429" height="166.308" filterUnits="userSpaceOnUse" color-interpolation-filters="sRGB"><feFlood flood-opacity="0" result="BackgroundImageFix"/><feBlend in="SourceGraphic" in2="BackgroundImageFix" result="shape"/><feColorMatrix in="SourceAlpha" values="0 0 0 0 0 0 0 0 0 0 0 0 0 0 0 0 0 0 127 0" result="hardAlpha"/><feOffset/><feGaussianBlur stdDeviation="10"/><feComposite in2="hardAlpha" operator="arithmetic" k2="-1" k3="1"/><feColorMatrix values="0 0 0 0 0 0 0 0 0 0 0 0 0 0 0 0 0 0 0.5 0"/><feBlend in2="shape" result="effect1_innerShadow"/></filter><filter id="filter5_i" x="587.346" y="0" width="184.495" height="227.071" filterUnits="userSpaceOnUse" color-interpolation-filters="sRGB"><feFlood flood-opacity="0" result="BackgroundImageFix"/><feBlend in="SourceGraphic" in2="BackgroundImageFix" result="shape"/><feColorMatrix in="SourceAlpha" values="0 0 0 0 0 0 0 0 0 0 0 0 0 0 0 0 0 0 127 0" result="hardAlpha"/><feOffset/><feGaussianBlur stdDeviation="10"/><feComposite in2="hardAlpha" operator="arithmetic" k2="-1" k3="1"/><feColorMatrix values="0 0 0 0 0 0 0 0 0 0 0 0 0 0 0 0 0 0 0.5 0"/><feBlend in2="shape" result="effect1_innerShadow"/></filter><filter id="filter6_i" x="503.873" y="74.716" width="99.008" height="152.356" filterUnits="userSpaceOnUse" color-interpolation-filters="sRGB"><feFlood flood-opacity="0" result="BackgroundImageFix"/><feBlend in="SourceGraphic" in2="BackgroundImageFix" result="shape"/><feColorMatrix in="SourceAlpha" values="0 0 0 0 0 0 0 0 0 0 0 0 0 0 0 0 0 0 127 0" result="hardAlpha"/><feOffset/><feGaussianBlur stdDeviation="10"/><feComposite in2="hardAlpha" operator="arithmetic" k2="-1" k3="1"/><feColorMatrix values="0 0 0 0 0 0 0 0 0 0 0 0 0 0 0 0 0 0 0.5 0"/><feBlend in2="shape" result="effect1_innerShadow"/></filter><filter id="filter7_i" x="397.716" y="1.047" width="135.224" height="227.482" filterUnits="userSpaceOnUse" color-interpolation-filters="sRGB"><feFlood flood-opacity="0" result="BackgroundImageFix"/><feBlend in="SourceGraphic" in2="BackgroundImageFix" result="shape"/><feColorMatrix in="SourceAlpha" values="0 0 0 0 0 0 0 0 0 0 0 0 0 0 0 0 0 0 127 0" result="hardAlpha"/><feOffset/><feGaussianBlur stdDeviation="10"/><feComposite in2="hardAlpha" operator="arithmetic" k2="-1" k3="1"/><feColorMatrix values="0 0 0 0 0 0 0 0 0 0 0 0 0 0 0 0 0 0 0.5 0"/><feBlend in2="shape" result="effect1_innerShadow"/></filter><filter id="filter8_i" x="1007.4" y="6.111" width="103.514" height="222.418" filterUnits="userSpaceOnUse" color-interpolation-filters="sRGB"><feFlood flood-opacity="0" result="BackgroundImageFix"/><feBlend in="SourceGraphic" in2="BackgroundImageFix" result="shape"/><feColorMatrix in="SourceAlpha" values="0 0 0 0 0 0 0 0 0 0 0 0 0 0 0 0 0 0 127 0" result="hardAlpha"/><feOffset/><feGaussianBlur stdDeviation="10"/><feComposite in2="hardAlpha" operator="arithmetic" k2="-1" k3="1"/><feColorMatrix values="0 0 0 0 0 0 0 0 0 0 0 0 0 0 0 0 0 0 0.5 0"/><feBlend in2="shape" result="effect1_innerShadow"/></filter><filter id="filter9_i" x="742.945" y="53.116" width="158.362" height="173.956" filterUnits="userSpaceOnUse" color-interpolation-filters="sRGB"><feFlood flood-opacity="0" result="BackgroundImageFix"/><feBlend in="SourceGraphic" in2="BackgroundImageFix" result="shape"/><feColorMatrix in="SourceAlpha" values="0 0 0 0 0 0 0 0 0 0 0 0 0 0 0 0 0 0 127 0" result="hardAlpha"/><feOffset/><feGaussianBlur stdDeviation="10"/><feComposite in2="hardAlpha" operator="arithmetic" k2="-1" k3="1"/><feColorMatrix values="0 0 0 0 0 0 0 0 0 0 0 0 0 0 0 0 0 0 0.5 0"/><feBlend in2="shape" result="effect1_innerShadow"/></filter><filter id="filter10_i" x="573" y="262" width="635" height="111" filterUnits="userSpaceOnUse" color-interpolation-filters="sRGB"><feFlood flood-opacity="0" result="BackgroundImageFix"/><feBlend in="SourceGraphic" in2="BackgroundImageFix" result="shape"/><feColorMatrix in="SourceAlpha" values="0 0 0 0 0 0 0 0 0 0 0 0 0 0 0 0 0 0 127 0" result="hardAlpha"/><feOffset/><feGaussianBlur stdDeviation="10"/><feComposite in2="hardAlpha" operator="arithmetic" k2="-1" k3="1"/><feColorMatrix values="0 0 0 0 0 0 0 0 0 0 0 0 0 0 0 0 0 0 0.5 0"/><feBlend in2="shape" result="effect1_innerShadow"/></filter></defs></svg>