<svg width="696" height="202" viewBox="0 0 696 202" fill="none" xmlns="http://www.w3.org/2000/svg"><g filter="url(#filter0_i)"><path d="M512.31 128.846l8.579-48.047h0c2.221-12.462 9.79-25.173 20.563-34.326 10.51-8.93 24-14.416 38.45-13.047l-6.804 39.599a3.315 3.315 0 00-.185-.074c-.641-.233-1.484-.314-2.964-.314h-.058l-.058.007a12.146 12.146 0 00-6.504 2.848l.652.758-.652-.758a12.118 12.118 0 00-3.794 5.995l-.011.042-.008.043-8.6 47.274H512.31zm130.677-.008h-20.506l6.418-36.656h13.994c2.532 0 4.169-1.859 4.584-4.158.412-2.284-.323-5.086-2.42-7.508l-.014-.016-.015-.015a26.891 26.891 0 01-6.683-12.553h0a26.871 26.871 0 018.467-26.084h0A26.98 26.98 0 01659.6 35.59l.03-.005.03-.008a87.078 87.078 0 018.941-1.79h.001a57.028 57.028 0 018.285-.608h17.923l-6.244 35.71h-14.59c-1.733 0-3.538 1.288-4.146 3.257-.635 2.059.074 4.607 2.775 7.163h0c5.984 5.652 9.877 15.637 9.31 25.049-.563 9.331-5.49 18.002-17.092 21.343l-.004.001a77.997 77.997 0 01-21.832 3.136zm-305.888.024l15.576-86.153.001-.006a50.638 50.638 0 0114.748-27.747 50.81 50.81 0 0128.283-13.74 40.593 40.593 0 0117.046 1.874 40.532 40.532 0 0114.754 8.754h0a40.423 40.423 0 019.799 14.065h.001a40.38 40.38 0 013.086 16.852v.045a48.638 48.638 0 01-.49 7.54c-.531.438-1.062.894-1.592 1.369a79.905 79.905 0 00-4.627 4.402l-.007.008-.007.007a65.157 65.157 0 00-5.041 6.12l-.009.013-.009.013a58.963 58.963 0 00-2.524 4.038c-.806 1.42-1.467 2.863-2.113 4.33-.557 1.263-.974 2.577-1.379 3.856l-.249.781c-.471 1.463-.721 2.977-.963 4.44l-.089.536-.003.017-.002.016a60.411 60.411 0 00-.356 3.341 46.708 46.708 0 01-24.404 10.294 44.297 44.297 0 01-5.715.223l7.495-40.701a9.113 9.113 0 003.88-3.936 9.094 9.094 0 00-2.325-11.138 9.13 9.13 0 00-11.392-.182 9.09 9.09 0 00-2.68 11.058 9.115 9.115 0 003.552 3.941l-7.403 40.788h0l-.724 3.97v.002l-.875 4.859v.001l-4.642 26.05h-38.601z" fill="#192D52" stroke="#192D52" stroke-width="2"/><path fill-rule="evenodd" clip-rule="evenodd" d="M40.612 129.861H0l15.78-87.33A51.654 51.654 0 0130.835 14.24 51.815 51.815 0 0159.701.239a41.6 41.6 0 0117.484 1.917 41.552 41.552 0 0115.12 8.97 41.443 41.443 0 0110.043 14.412 41.364 41.364 0 013.166 17.27v1.239L103.43 45.8l-3.976 3.97-3.611 4.287-3.246 4.525-2.823 4.724-2.386 4.875-1.925 5.01-1.448 5.08-1.519 8.463a47.082 47.082 0 01-21.73 8.13c-2.322.244-4.66.302-6.99.175l7.786-42.332a8.122 8.122 0 003.895-3.745 8.1 8.1 0 00-2.16-9.952 8.138 8.138 0 00-5.1-1.8h-.453a8.14 8.14 0 00-4.862 1.962 8.1 8.1 0 00-1.984 9.71 8.122 8.122 0 003.704 3.706l-7.556 41.49-.23 1.302-1.36 7.526-4.844 26.954z" fill="#841819"/><path fill-rule="evenodd" clip-rule="evenodd" d="M148.075 33.386l-7.238 42.077c-1.153-.627-.939-.976-3.889-.976a11.202 11.202 0 00-5.964 2.617 11.166 11.166 0 00-3.493 5.488l-8.75 48.096H78.13l8.749-49.223c4.565-25.429 30.82-51.644 61.196-48.08zm38.528 4.842a48.001 48.001 0 013.324-.222L182.26 79.63a8.144 8.144 0 00-3.909 3.72 8.123 8.123 0 002.059 9.961 8.16 8.16 0 0013.127-4.348 8.13 8.13 0 00-4.318-9.214l7.532-41.387a41.888 41.888 0 0125.892 14.47 41.737 41.737 0 019.781 27.965 51.93 51.93 0 01-12.538 34.465 52.107 52.107 0 01-32.21 17.631 41.61 41.61 0 01-17.485-1.921 41.555 41.555 0 01-15.121-8.971 41.48 41.48 0 01-10.046-14.414 41.405 41.405 0 01-3.169-17.271A51.94 51.94 0 01154.4 55.86a52.123 52.123 0 0132.203-17.632zM328.8 129.862h-40.636l16.178-87.132h40.445L328.8 129.862zM289.079 95.31l7.087-39.925-14.437.143.995-5.399a11.111 11.111 0 013.483-5.502 11.15 11.15 0 015.974-2.611 10.218 10.218 0 015.368.984L304.787.923c-.477-.056-2.433-.104-2.911-.143-29.763-2.596-55.238 23.206-59.732 48.222l-14.691 81.693h40.636l6.418-35.297 14.572-.087z" fill="#841819"/><path d="M629.935 4.495l-5.132 26.661-.232 1.201 1.224-.012 8.339-.083-6.723 37.919-9.189.058-.814.005-.16.799-.795 3.97-.002.01-.002.01c-.265 1.475-.622 2.94-.973 4.381-.105.429-.209.855-.31 1.28-.431 1.815-.811 3.603-.852 5.172-.041 1.568.251 3.106 1.366 4.233 1.108 1.12 2.821 1.623 5.126 1.623.162 0 .918-.015 1.673-.03l.084-.002.536-.01-6.795 38.004a573.025 573.025 0 00-3.44-.036 37.354 37.354 0 01-16.623-4.065h0a37.26 37.26 0 01-13.055-11.05c-7.034-9.529-7.276-21.865-4.101-39.594l.001-.006 13.546-70.438h37.303zM514.45 77.777v.003a48.43 48.43 0 01-.779 9.418v.002l-7.699 41.662h-35.286c-24.607 0-44.509-16.151-44.797-41.571a43.258 43.258 0 015.888-20.72 43.371 43.371 0 0114.273-14.785l15.324 28.985a9.108 9.108 0 00-.616 5.495h0a9.121 9.121 0 003.076 5.198h0a9.15 9.15 0 0011.406.29 9.115 9.115 0 00-1.389-15.404h0a9.152 9.152 0 00-5.244-.918l-22.079-41.433c17.365-4.494 34.101-3.212 46.584 3.844 12.676 7.166 21.111 20.366 21.338 39.934z" fill="#192D52" stroke="#192D52" stroke-width="2"/><path fill-rule="evenodd" clip-rule="evenodd" d="M385.211 179.755l7.954-43.303h-15.296l-8.138 44.366a11.625 11.625 0 01-1.107 3.247 11.316 11.316 0 01-2.665 3.322 13.758 13.758 0 01-4.819 2.492 24.834 24.834 0 01-7.543 1.022 21.47 21.47 0 01-7.259-1.022 7.96 7.96 0 01-3.78-2.492 6.354 6.354 0 01-1.307-3.322 10.351 10.351 0 01.142-3.247l8.139-44.333h-15.313l-7.963 43.303c-.56 2.86-.353 5.816.604 8.571a16.16 16.16 0 004.886 6.794 24.266 24.266 0 008.625 4.46 39.964 39.964 0 0011.809 1.602 47.596 47.596 0 0012.572-1.553 33.81 33.81 0 009.949-4.41 25.466 25.466 0 006.948-6.777 22.693 22.693 0 003.537-8.687l.025-.033zm23.67 19.459l3.83-20.838h5.599l10.393 20.838h16.293l-13.913-26.518 21.322-20.115h-15.807l-18.297 17.831h-4.123l6.227-33.919h-14.332l-11.483 62.721h14.291zm80.705-35.712a42.89 42.89 0 00-4.82-.258 24.417 24.417 0 00-4.191.333 15.712 15.712 0 00-4.19 1.32 10.48 10.48 0 00-3.479 2.774 10.861 10.861 0 00-2.028 4.692l-4.937 26.876h-14.147l8.565-46.675h14.19l-1.676 9.044a19.16 19.16 0 011.609-2.425 11.841 11.841 0 012.355-2.176 34.147 34.147 0 014.191-2.541c.796-.449 1.626-.831 2.514-1.271a17.399 17.399 0 012.926-.997 14.014 14.014 0 013.352-.398c.281-.005.561.014.838.058.32.021.64.06.956.116l-2.104 11.528h.076zm48.897 35.712l.302-1.661a7.13 7.13 0 01-1.861-2.492 5.526 5.526 0 01-.369-3.014l4.685-25.489a11.35 11.35 0 00-1.232-8.571 12.38 12.38 0 00-7.015-4.767 40.534 40.534 0 00-11.918-1.462 47.592 47.592 0 00-5.339.266c-2.123.223-4.22.632-6.27 1.221a24.11 24.11 0 00-6.168 2.699 17.354 17.354 0 00-5.088 4.734 18.488 18.488 0 00-3.009 7.342h13.41c.234-.967.565-1.907.989-2.807a9.755 9.755 0 011.928-2.724 9.513 9.513 0 013.395-2.085 15.772 15.772 0 015.313-.831 12.509 12.509 0 014.828.789 4.84 4.84 0 012.515 2.035c.438.886.565 1.891.36 2.857a5.88 5.88 0 01-1.433 2.841 6.715 6.715 0 01-3.043 1.81 130.37 130.37 0 01-8.054 1.86 708.697 708.697 0 00-7.435 1.504 55.826 55.826 0 00-6.537 1.76 23.084 23.084 0 00-5.373 2.575 13.66 13.66 0 00-3.931 4.011 16.294 16.294 0 00-2.263 6.03 11.624 11.624 0 00.797 7.599 9.866 9.866 0 005.029 4.452 21.134 21.134 0 008.23 1.453 30.314 30.314 0 007.024-.83 27.658 27.658 0 005.465-1.927 28.526 28.526 0 003.905-2.201 127.326 127.326 0 002.364-1.661v.207a1.398 1.398 0 01-.042.216 6.446 6.446 0 000 2.301c.121.682.368 1.335.729 1.927l15.112.033zm-13.394-18.396a15.096 15.096 0 01-2.849 6.719 11.89 11.89 0 01-5.088 3.638 18.773 18.773 0 01-6.705 1.088 7.66 7.66 0 01-3.403-.665 4.594 4.594 0 01-1.869-1.661 5.031 5.031 0 01-.687-2.126 6.818 6.818 0 01.067-2.076 5.374 5.374 0 011.257-2.425 9.949 9.949 0 012.649-2.185 10.882 10.882 0 013.637-1.328c1.266-.233 2.665-.491 4.191-.789 1.525-.299 3.126-.682 4.777-1.097a48.82 48.82 0 004.82-1.478l-.839 4.393.042-.008zm47.339-33.578l1.978-10.796h-14.324l-1.97 10.796h14.316zm-9.555 52.007l8.566-46.675H557.19l-8.633 46.642 14.316.033zm62.928 0l5.741-31.26a13.9 13.9 0 00-.964-9.394 11.541 11.541 0 00-6.47-5.199 31.864 31.864 0 00-10.896-1.586 17.234 17.234 0 00-5.532.939 20.816 20.816 0 00-5.247 2.674 21.783 21.783 0 00-4.467 4.219l1.291-7.068h-14.14l-8.574 46.675h14.173l5.54-30.139a7.076 7.076 0 011.023-2.492 9.595 9.595 0 012.38-2.549 12.946 12.946 0 014.032-1.96 20.487 20.487 0 015.95-.789 12.31 12.31 0 014.853.78 4.048 4.048 0 012.246 2.027c.414.905.592 1.898.52 2.89a28.18 28.18 0 01-.453 3.322l-5.313 28.935 14.307-.025zm65.501-22.731a29.2 29.2 0 00.545-4.942 19.923 19.923 0 00-.453-5.165 19.72 19.72 0 00-2.095-5.399 15.846 15.846 0 00-2.615-3.397 18.38 18.38 0 00-3.973-2.956 22.372 22.372 0 00-5.54-2.06 30.007 30.007 0 00-7.208-.83 35.16 35.16 0 00-10.385 1.47 27.735 27.735 0 00-8.935 4.651 27.064 27.064 0 00-6.839 8.114 37.518 37.518 0 00-4.124 11.851 23.945 23.945 0 00.093 9.966 16.031 16.031 0 004.006 7.309 18.258 18.258 0 007.216 4.526 29.16 29.16 0 009.765 1.528 38.106 38.106 0 0012.287-1.918 29.482 29.482 0 009.605-5.274 22.88 22.88 0 006.144-7.956h-14.073a7.783 7.783 0 01-1.676 2.184 15.84 15.84 0 01-2.808 2.018 16.184 16.184 0 01-3.419 1.503 12.416 12.416 0 01-3.68.573 11.192 11.192 0 01-4.903-.98 8.599 8.599 0 01-3.193-2.491 8.703 8.703 0 01-1.576-3.43 9.047 9.047 0 01-.075-3.646c0-.249.083-.54.15-.922.067-.382.093-.731.16-1.096.047-.309.126-.612.234-.906h36.82c.043-.281.106-.559.193-.83.058-.224.092-.449.151-.665.058-.215.142-.506.201-.83zm-14.031-4.908h-22.018a12.34 12.34 0 011.232-3.497 12.896 12.896 0 012.515-3.446 12.466 12.466 0 014.014-2.608 14.366 14.366 0 015.599-1.047 11.636 11.636 0 014.35.764 6.862 6.862 0 012.682 1.952 7.303 7.303 0 011.375 2.633c.273.908.415 1.851.419 2.799.015.809-.045 1.617-.176 2.416l.008.034z" fill="#841819"/></g><defs><filter id="filter0_i" x="0" y="0" width="696" height="201.22" filterUnits="userSpaceOnUse" color-interpolation-filters="sRGB"><feFlood flood-opacity="0" result="BackgroundImageFix"/><feBlend in="SourceGraphic" in2="BackgroundImageFix" result="shape"/><feColorMatrix in="SourceAlpha" values="0 0 0 0 0 0 0 0 0 0 0 0 0 0 0 0 0 0 127 0" result="hardAlpha"/><feOffset/><feGaussianBlur stdDeviation="10"/><feComposite in2="hardAlpha" operator="arithmetic" k2="-1" k3="1"/><feColorMatrix values="0 0 0 0 0 0 0 0 0 0 0 0 0 0 0 0 0 0 0.5 0"/><feBlend in2="shape" result="effect1_innerShadow"/></filter></defs></svg>