<svg width="304" height="62" viewBox="0 0 304 62" fill="none" xmlns="http://www.w3.org/2000/svg"><path fill-rule="evenodd" clip-rule="evenodd" d="M12.359 38.624H.279L4.973 12.65A15.364 15.364 0 019.45 4.234 15.412 15.412 0 0118.036.07a12.374 12.374 0 019.698 3.238 12.325 12.325 0 013.929 9.424v.368l-.62.522-1.183 1.18-1.074 1.276-.965 1.346-.84 1.405-.71 1.45-.572 1.49-.43 1.51-.452 2.518a14.005 14.005 0 01-6.464 2.418c-.69.073-1.386.09-2.08.052l2.317-12.59a2.416 2.416 0 001.36-2.708 2.412 2.412 0 00-2.36-1.902h-.136a2.42 2.42 0 00-2.234 1.927 2.409 2.409 0 001.3 2.647l-2.247 12.34-.07.388-.404 2.238-1.44 8.017z" fill="#C90C0F"/><path fill-rule="evenodd" clip-rule="evenodd" d="M44.322 9.93l-2.153 12.515c-.343-.186-.279-.29-1.157-.29a3.332 3.332 0 00-2.813 2.41l-2.602 14.306h-12.08l2.603-14.64C27.478 16.666 35.287 8.87 44.322 9.93z" fill="#C90C0F"/><path fill-rule="evenodd" clip-rule="evenodd" d="M173.11 9.68l-2.151 12.515c-.343-.189-.277-.293-1.157-.293a3.316 3.316 0 00-2.81 2.414L164.39 38.62h-12.087l2.614-14.64c1.349-7.564 9.165-15.362 18.193-14.301zm13.976 17.44h4.412c1.15 0 1.567-1.652.419-2.977a8.3 8.3 0 01-1.859-8.253 8.295 8.295 0 012.409-3.666 8.328 8.328 0 013.945-1.93 26.185 26.185 0 012.69-.539c.83-.122 1.668-.184 2.508-.184h5.684l-1.961 11.217h-4.589c-.755 0-1.708 1.161-.204 2.585 3.698 3.493 4.746 12.232-2.436 14.3a23.502 23.502 0 01-6.577.945h-6.454l2.013-11.497z" fill="#13336D"/><path fill-rule="evenodd" clip-rule="evenodd" d="M55.782 11.37c.336-.035.662-.054.988-.066l-2.28 12.38a2.422 2.422 0 00-1.378 2.696 2.42 2.42 0 002.334 1.931 2.428 2.428 0 002.398-1.85 2.417 2.417 0 00-1.284-2.74l2.24-12.31a12.46 12.46 0 017.701 4.303 12.416 12.416 0 012.91 8.318c.045 3.756-1.28 7.4-3.73 10.251a15.5 15.5 0 01-9.58 5.244 12.375 12.375 0 01-9.698-3.24 12.334 12.334 0 01-3.931-9.424 15.45 15.45 0 013.731-10.248 15.504 15.504 0 019.578-5.245z" fill="#C90C0F"/><path fill-rule="evenodd" clip-rule="evenodd" d="M112.275 38.626h-12.086l4.696-25.976a15.355 15.355 0 014.473-8.416 15.408 15.408 0 018.583-4.167 12.372 12.372 0 019.697 3.238 12.316 12.316 0 013.927 9.423c.011.805-.045 1.609-.165 2.404a23.288 23.288 0 00-1.914 1.766 19.086 19.086 0 00-1.476 1.793c-.263.387-.507.772-.739 1.18-.231.409-.423.827-.615 1.261-.191.435-.324.888-.473 1.351-.149.463-.22.945-.303 1.438-.049.37-.087.737-.113 1.103a14.191 14.191 0 01-7.514 3.21 13.47 13.47 0 01-2.086.053l2.318-12.59a2.413 2.413 0 001.365-2.687 2.41 2.41 0 00-2.326-1.919 2.416 2.416 0 00-2.387 1.844 2.408 2.408 0 001.278 2.728l-2.24 12.343-.216 1.181-.26 1.445-1.424 7.994z" fill="#13336D"/><path fill-rule="evenodd" clip-rule="evenodd" d="M98.076 38.626H85.99L90.8 12.71h12.03l-4.755 25.916zM86.262 28.349l2.108-11.875-4.294.042.295-1.606a3.306 3.306 0 012.813-2.413 3.04 3.04 0 011.597.293L90.934.275c-.142-.017-.724-.031-.866-.043-8.852-.772-16.43 6.902-17.766 14.343l-4.37 24.299h12.087l1.909-10.5 4.334-.025z" fill="#C90C0F"/><path fill-rule="evenodd" clip-rule="evenodd" d="M187.143 21.17l2.106-11.875-2.839.028 1.594-8.283h-11.701l-4.076 21.195c-.946 5.283-.899 9.066 1.273 12.008a11.402 11.402 0 009.066 4.617c.175 0 1.093.011 1.272.014l2.129-11.909c-.099 0-.946.019-1.038.019-2.602 0-1.42-2.293-1.003-4.614l.236-1.18 2.981-.02zm-33.551 1.96c.015.959-.064 1.916-.236 2.86l-2.335 12.636h-10.743c-7.454 0-13.537-4.91-13.622-12.665a13.17 13.17 0 011.792-6.31 13.203 13.203 0 014.617-4.668l4.776 9.035a2.41 2.41 0 00.59 2.96 2.427 2.427 0 003.022.076 2.416 2.416 0 00.74-2.925 2.426 2.426 0 00-2.696-1.365l-6.841-12.839.054-.019c10.653-2.892 20.745 1.394 20.882 13.224z" fill="#13336D"/><path fill-rule="evenodd" clip-rule="evenodd" d="M116.004 55.864l2.245-12.313h-4.318l-2.297 12.615a3.317 3.317 0 01-.312.923 3.21 3.21 0 01-.753.945 3.875 3.875 0 01-1.36.708 6.963 6.963 0 01-2.129.29 6.012 6.012 0 01-2.049-.29 2.244 2.244 0 01-1.067-.708 1.82 1.82 0 01-.369-.945 2.981 2.981 0 01.04-.923l2.298-12.605h-4.323l-2.247 12.312c-.158.813-.1 1.654.17 2.437.283.753.758 1.42 1.38 1.932a6.825 6.825 0 002.434 1.268 11.2 11.2 0 003.333.455 13.367 13.367 0 003.549-.441 9.52 9.52 0 002.808-1.254 7.223 7.223 0 001.961-1.927c.5-.745.84-1.587.998-2.47l.008-.01zm6.68 5.532l1.081-5.924h1.581l2.933 5.924h4.599l-3.927-7.54 6.019-5.719h-4.462l-5.165 5.07h-1.164l1.758-9.644h-4.045l-3.241 17.833h4.033zm22.78-10.154c-.452-.05-.906-.074-1.36-.073a6.84 6.84 0 00-1.183.095c-.41.069-.809.195-1.183.375-.38.19-.715.459-.982.789-.294.393-.49.85-.572 1.334l-1.394 7.641h-3.993l2.418-13.27h4.005l-.473 2.571a5.34 5.34 0 01.454-.69c.192-.235.416-.443.665-.618a9.58 9.58 0 011.182-.723c.225-.127.459-.236.71-.361.266-.119.543-.214.826-.283.309-.076.627-.115.946-.114a1.35 1.35 0 01.237.017c.09.006.18.017.269.033l-.593 3.277h.021zm13.801 10.154l.086-.472a2.03 2.03 0 01-.526-.708 1.592 1.592 0 01-.104-.858l1.323-7.247a3.25 3.25 0 00-.348-2.436 3.494 3.494 0 00-1.98-1.356 11.36 11.36 0 00-3.364-.416 13.284 13.284 0 00-1.507.076 10.27 10.27 0 00-1.77.347c-.613.173-1.2.431-1.741.768a4.91 4.91 0 00-1.436 1.346 5.272 5.272 0 00-.849 2.087h3.785c.066-.275.159-.542.279-.798.136-.288.32-.55.544-.775.274-.263.601-.465.958-.592a4.431 4.431 0 011.5-.236 3.5 3.5 0 011.363.224c.296.105.547.31.71.578.123.252.159.538.101.813-.058.3-.198.58-.404.807a1.89 1.89 0 01-.859.515c-.778.208-1.54.383-2.273.529-.734.146-1.439.288-2.099.427-.625.13-1.241.297-1.845.501a6.487 6.487 0 00-1.516.732 3.89 3.89 0 00-1.11 1.14 4.652 4.652 0 00-.639 1.715 3.324 3.324 0 00.225 2.16 2.79 2.79 0 001.419 1.266 5.928 5.928 0 002.324.413c.667 0 1.333-.079 1.982-.236a7.77 7.77 0 001.543-.547c.383-.18.752-.389 1.102-.626.296-.206.516-.361.667-.472v.059a1.843 1.843 0 00-.012.715c.034.194.104.38.206.548l4.265.01zm-3.78-5.23a4.32 4.32 0 01-.804 1.91 3.352 3.352 0 01-1.436 1.035 5.263 5.263 0 01-1.893.309 2.147 2.147 0 01-.96-.189 1.298 1.298 0 01-.528-.472 1.44 1.44 0 01-.194-.605 1.949 1.949 0 01.019-.59c.057-.257.179-.494.355-.69.211-.248.464-.459.747-.62a3.066 3.066 0 011.027-.379c.357-.066.752-.139 1.183-.224.431-.085.882-.194 1.349-.312.46-.116.914-.256 1.36-.42l-.237 1.25.012-.003zm13.362-9.547l.558-3.07h-4.043l-.556 3.07h4.041zm-2.697 14.787l2.418-13.271h-4.022l-2.437 13.261 4.041.01zm17.762 0l1.62-8.888a3.972 3.972 0 00-.272-2.671 3.265 3.265 0 00-1.826-1.478 8.932 8.932 0 00-3.076-.451 4.836 4.836 0 00-1.561.266 5.875 5.875 0 00-1.481.76 6.184 6.184 0 00-1.261 1.2l.364-2.01h-3.991l-2.42 13.272h4.001l1.563-8.57c.051-.252.149-.492.289-.708.178-.28.406-.526.672-.725.344-.25.729-.44 1.138-.557a5.756 5.756 0 011.68-.225c.466-.019.933.057 1.369.222.278.103.506.31.634.576.117.258.167.54.147.822a8.118 8.118 0 01-.128.945l-1.5 8.227 4.039-.007zm18.488-6.463c.091-.464.142-.933.154-1.405a5.708 5.708 0 00-.128-1.47 5.612 5.612 0 00-.592-1.534 4.486 4.486 0 00-.738-.966 5.191 5.191 0 00-1.121-.84 6.3 6.3 0 00-1.564-.586 8.411 8.411 0 00-2.034-.236 9.868 9.868 0 00-2.932.418 7.81 7.81 0 00-2.521 1.322 7.682 7.682 0 00-1.931 2.307 10.727 10.727 0 00-1.164 3.37 6.85 6.85 0 00.026 2.834 4.57 4.57 0 001.131 2.078 5.15 5.15 0 002.037 1.287 8.178 8.178 0 002.756.434c1.178.01 2.35-.174 3.468-.546a8.296 8.296 0 002.711-1.499 6.49 6.49 0 001.734-2.262h-3.972c-.119.233-.28.444-.473.62-.242.22-.508.413-.792.575-.304.18-.628.322-.966.427a3.483 3.483 0 01-1.038.163 3.14 3.14 0 01-1.384-.279 2.423 2.423 0 01-.901-.708 2.471 2.471 0 01-.445-.975 2.585 2.585 0 01-.021-1.037c0-.07.023-.153.042-.262.019-.109.026-.208.045-.312.014-.088.036-.174.066-.257h10.393c.012-.08.03-.159.054-.236.017-.064.026-.128.043-.19.017-.06.04-.143.057-.235zm-3.96-1.396h-6.215c.065-.347.182-.682.348-.994a3.52 3.52 0 011.842-1.721 4.036 4.036 0 011.581-.298 3.26 3.26 0 011.228.217c.294.12.554.311.757.555.179.22.311.475.388.749.077.258.117.526.118.795.004.23-.013.46-.05.688l.003.01z" fill="#C90C0F"/><path d="M219.213 14.693v-.906h.25c.138 0 .309-.005.513-.014a2.83 2.83 0 00.486-.056c.37-.093.684-.283.943-.571.268-.298.402-.67.402-1.116 0-.613-.148-1.04-.444-1.282-.296-.251-.67-.377-1.123-.377-.361 0-.68.033-.958.098a2.502 2.502 0 00-.68.25l-.277-.85c.166-.102.439-.204.819-.307a5.123 5.123 0 011.304-.153c.314 0 .619.037.915.112.296.074.555.204.777.39.232.177.417.423.555.739.139.307.208.692.208 1.157 0 .474-.12.92-.36 1.339-.232.409-.592.715-1.082.92v.056c.518.102.924.353 1.22.753.306.39.458.92.458 1.59 0 .538-.083.998-.249 1.38a2.59 2.59 0 01-.653.947 2.644 2.644 0 01-.943.544 3.784 3.784 0 01-1.124.168c-.49 0-.902-.033-1.235-.098a3.026 3.026 0 01-.804-.265l.277-.948c.185.102.426.186.722.25a5.12 5.12 0 001.082.098c.25 0 .485-.041.707-.125.222-.093.417-.223.583-.39.167-.168.296-.377.389-.628.101-.26.152-.558.152-.892 0-.604-.162-1.041-.485-1.31-.315-.28-.74-.442-1.277-.489a2.518 2.518 0 00-.25-.014h-.818zm9.124 1.91h-2.748l-.777 2.733h-1.026l2.927-9.913h.569l2.928 9.913h-1.083l-.79-2.732zm-2.47-.934h2.22l-.847-3.011-.263-1.464h-.028l-.263 1.491-.819 2.984zm9.777-5.13h-3.441v8.797h-1.041v-9.76h5.522v9.76h-1.04v-8.798zm3.737-.963v3.402c0 .679.115 1.153.347 1.423.231.26.569.39 1.013.39.323 0 .633-.06.929-.181.305-.121.55-.28.735-.474v-4.56h1.041v9.76h-1.041v-4.182c-.185.139-.444.274-.777.404s-.702.195-1.109.195a3.16 3.16 0 01-.847-.112 1.726 1.726 0 01-.694-.39 2.14 2.14 0 01-.471-.78c-.111-.326-.167-.744-.167-1.256V9.576h1.041zm9.577 7.027h-2.747l-.777 2.733h-1.027l2.928-9.913h.569l2.927 9.913h-1.082l-.791-2.732zm-2.469-.934h2.219l-.846-3.011-.263-1.464h-.028l-.264 1.491-.818 2.984zm10.075 3.29a2.086 2.086 0 01-.874.42 4.784 4.784 0 01-1.11.125 3.28 3.28 0 01-1.36-.28 2.787 2.787 0 01-1.082-.878c-.296-.409-.527-.934-.694-1.575-.166-.642-.25-1.413-.25-2.315 0-.93.093-1.715.278-2.356.194-.641.448-1.162.763-1.562.314-.4.675-.687 1.082-.864a3.24 3.24 0 011.277-.265c.444 0 .809.033 1.096.098.296.065.55.144.763.237l-.25.948a2.444 2.444 0 00-.652-.237 3.973 3.973 0 00-.86-.084c-.324 0-.629.074-.916.223-.287.14-.541.372-.763.697-.222.316-.398.735-.527 1.255-.13.52-.195 1.158-.195 1.91 0 1.357.232 2.38.694 3.068.463.678 1.078 1.017 1.846 1.017.314 0 .596-.041.846-.125.25-.093.462-.2.638-.32l.25.864zm6.044-8.42h-2.387v8.797h-1.04v-8.798h-2.387v-.962h5.814v.962zm5.817 2.412l.083-1.283h-.042l-.485 1.31-3.594 6.358h-.693v-9.76h1.04v6.484l-.097 1.255h.055l.486-1.311 3.608-6.428h.679v9.76h-1.04v-6.385zm7.436 1.882h-3.58v4.503h-1.041v-9.76h1.041v4.295h3.58V9.576h1.04v9.76h-1.04v-4.503zm7.549-1.882l.083-1.283h-.041l-.486 1.31-3.593 6.358h-.694v-9.76h1.041v6.484l-.098 1.255h.056l.486-1.311 3.607-6.428h.68v9.76h-1.041v-6.385zm-59.594 28.592h-.735l-.167-1.798h-5.383l-.166 1.798h-.736v-2.76h.805c.055-.103.143-.345.264-.726.129-.38.254-.924.374-1.63.13-.717.241-1.604.333-2.664.093-1.069.134-2.328.125-3.778h4.273v8.797h1.013v2.761zm-2.053-2.76v-7.836h-2.234c-.046 2.054-.166 3.718-.361 4.991-.194 1.273-.407 2.221-.638 2.844h3.233zm7.72-7.836h-2.193a86.667 86.667 0 01-.291 4.684c-.12 1.255-.305 2.222-.555 2.9-.157.447-.352.772-.583.976a1.158 1.158 0 01-.79.307c-.269 0-.495-.046-.68-.14l.152-.961a.696.696 0 00.514-.028c.157-.075.305-.288.444-.642.101-.25.194-.585.277-1.003.092-.428.171-.967.236-1.618.074-.65.134-1.422.18-2.314.046-.892.079-1.933.097-3.123h4.232v9.76h-1.04v-8.798zm7.435 8.798h-1.04v-4.281l-1.11.293-1.887 3.988h-1.207l1.707-3.528.666-.586a2.351 2.351 0 01-1.319-.892c-.333-.465-.499-1.101-.499-1.91 0-.576.079-1.055.236-1.436.157-.381.37-.683.638-.906a2.16 2.16 0 01.944-.474 4.59 4.59 0 011.151-.14c.25 0 .527.014.832.042.315.028.611.084.888.167v9.663zm-1.803-8.91c-.241 0-.467.033-.68.098a1.294 1.294 0 00-.569.32 1.58 1.58 0 00-.402.614c-.093.25-.139.572-.139.962 0 .716.171 1.231.513 1.547.343.317.773.474 1.291.474h.749v-3.93a1.25 1.25 0 00-.333-.07 5.683 5.683 0 00-.43-.014zm11.333 1.366c0 .242-.028.484-.083.725a2.58 2.58 0 01-.264.684c-.12.214-.273.404-.458.571a1.672 1.672 0 01-.652.377v.056c.222.046.435.125.638.236.204.103.384.252.542.447.157.186.282.418.374.697.093.27.139.595.139.976 0 .502-.079.939-.236 1.31a2.38 2.38 0 01-.652.893 2.588 2.588 0 01-.944.516 3.691 3.691 0 01-1.123.167h-.458c-.167 0-.347-.01-.541-.028a6.212 6.212 0 01-.583-.056 2.788 2.788 0 01-.513-.097v-9.607c.277-.055.601-.102.971-.14.379-.036.786-.055 1.221-.055.314 0 .629.033.943.098.315.055.597.167.847.334.249.168.448.405.596.711.157.298.236.693.236 1.185zm-2.636 6.693c.25 0 .481-.037.694-.112.212-.083.397-.204.555-.362.166-.158.296-.349.388-.572.093-.232.139-.502.139-.808 0-.382-.06-.688-.181-.92a1.351 1.351 0 00-.444-.558 1.628 1.628 0 00-.638-.265 3.65 3.65 0 00-.721-.07h-.93v3.57c.056.018.125.032.208.041.093.01.19.019.292.028l.333.028h.305zm-.569-4.573c.129 0 .277-.005.444-.014a3.91 3.91 0 00.416-.042 2.11 2.11 0 00.874-.67c.25-.315.375-.701.375-1.156a2.05 2.05 0 00-.125-.767 1.184 1.184 0 00-.846-.753 2.207 2.207 0 00-.611-.084c-.24 0-.458.01-.652.028-.194.01-.342.023-.444.042v3.416h.569zm8.654 2.69h-2.748l-.776 2.733h-1.027l2.927-9.913h.569l2.927 9.914h-1.082l-.79-2.733zm-2.47-.934h2.22l-.847-3.011-.263-1.464h-.028l-.264 1.492-.818 2.983zm9.915-.836h-3.579v4.504h-1.041v-9.76h1.041v4.294h3.579v-4.294h1.041v9.76h-1.041V35.24zm7.938-4.294h-2.386v8.798h-1.041v-8.798h-2.386v-.962h5.813v.962zm4.06 6.065h-2.747l-.777 2.733h-1.027l2.927-9.914h.569l2.928 9.914h-1.083l-.79-2.733zm-2.47-.934h2.22l-.847-3.012-.263-1.464h-.028l-.264 1.492-.818 2.983zm8.389-6.093h.999v4.545l.472-.195 2.136-4.35h1.166l-2.178 4.238-.458.446.569.558 2.414 4.518h-1.291l-2.33-4.532h-.5v4.532h-.999v-4.7l-.458.196-2.331 4.504h-1.22l2.386-4.378.541-.517-.513-.487-2.248-4.378h1.221l2.137 4.378h.485v-4.378zm10.604 5.256h-3.579v4.504h-1.041v-9.76h1.041v4.294h3.579v-4.294h1.041v9.76h-1.041V35.24zm7.55-1.882l.083-1.283h-.042l-.485 1.31-3.594 6.358h-.694v-9.76h1.041v6.484l-.097 1.255h.055l.486-1.31 3.607-6.428h.68v9.76h-1.04v-6.386zm4.744 1.422l-2.331-4.796h1.249l1.512 3.304.277.823.278-.823 1.596-3.304h1.151l-2.414 4.698L304 39.745h-1.221l-1.679-3.5-.319-.865-.291.865-1.72 3.5h-1.166l2.553-4.964zM221.18 58.93h-2.747l-.777 2.733h-1.027l2.928-9.913h.568l2.928 9.913h-1.082l-.791-2.732zm-2.47-.934h2.22l-.846-3.011-.264-1.464h-.028l-.263 1.492-.819 2.983zm10.11-3.876c0 .242-.028.484-.083.725a2.58 2.58 0 01-.264.684c-.12.213-.273.404-.458.571a1.679 1.679 0 01-.652.377v.055c.222.047.435.126.638.237.204.103.384.251.541.447.158.186.283.418.375.697.093.27.139.595.139.976 0 .502-.079.938-.236 1.31a2.38 2.38 0 01-.652.893 2.588 2.588 0 01-.944.516 3.69 3.69 0 01-1.124.167h-.457c-.167 0-.347-.01-.542-.028a6.158 6.158 0 01-.582-.056 2.796 2.796 0 01-.513-.097v-9.607c.277-.056.601-.102.971-.14.379-.036.786-.055 1.221-.055.314 0 .629.032.943.098.315.055.597.167.846.334.25.167.449.405.597.711.157.298.236.693.236 1.185zm-2.636 6.693c.249 0 .481-.037.693-.112.213-.083.398-.204.555-.362a1.65 1.65 0 00.389-.572c.092-.232.139-.502.139-.809 0-.38-.06-.687-.181-.92a1.352 1.352 0 00-.444-.557 1.63 1.63 0 00-.638-.265 3.65 3.65 0 00-.721-.07h-.93v3.57c.055.018.125.032.208.041.093.01.19.019.291.028l.333.028h.306zm-.569-4.573c.129 0 .277-.005.444-.014a3.91 3.91 0 00.416-.042 2.11 2.11 0 00.874-.67c.25-.315.375-.701.375-1.157a2.05 2.05 0 00-.125-.766 1.184 1.184 0 00-.846-.753 2.21 2.21 0 00-.611-.084c-.24 0-.458.01-.652.028a3.62 3.62 0 00-.444.042v3.416h.569zm9.77-3.374h-2.387v8.797h-1.04v-8.797h-2.387v-.962h5.814v.962zm.279 3.918c0-1.655.264-2.91.791-3.765s1.332-1.283 2.414-1.283c.583 0 1.078.121 1.485.363.407.232.735.567.985 1.004.259.437.449.966.569 1.59.12.622.18 1.319.18 2.09 0 1.655-.268 2.91-.805 3.765-.527.855-1.332 1.283-2.414 1.283-.573 0-1.063-.117-1.47-.349a2.842 2.842 0 01-.999-1.018c-.259-.437-.449-.966-.569-1.59a11.973 11.973 0 01-.167-2.09zm1.096 0c0 .548.037 1.068.111 1.561.084.493.209.925.375 1.297.167.371.384.669.652.892.268.223.592.335.971.335.694 0 1.221-.335 1.582-1.004.361-.67.541-1.697.541-3.081 0-.54-.042-1.056-.125-1.548a4.959 4.959 0 00-.361-1.297 2.39 2.39 0 00-.652-.906c-.268-.223-.596-.335-.985-.335-.684 0-1.207.335-1.567 1.004-.361.67-.542 1.697-.542 3.081zm12.832-1.534l.125-1.478h-.056l-.444 1.38-1.956 4.239h-.347l-2.053-4.239-.43-1.38h-.056l.194 1.478v6.413h-.999v-9.76h.874l2.345 4.797.347 1.143h.028l.333-1.157 2.22-4.782h.915v9.76h-1.04V55.25zm2.521 1.534c0-1.655.263-2.91.791-3.765.527-.855 1.332-1.283 2.414-1.283.583 0 1.078.121 1.485.363.407.232.735.567.984 1.004.259.437.449.966.569 1.59.121.622.181 1.319.181 2.09 0 1.655-.269 2.91-.805 3.765-.527.855-1.332 1.283-2.414 1.283-.574 0-1.064-.117-1.471-.349a2.842 2.842 0 01-.999-1.018c-.259-.437-.448-.966-.568-1.59a11.973 11.973 0 01-.167-2.09zm1.096 0c0 .548.037 1.068.111 1.561.083.493.208.925.375 1.297.166.371.383.669.652.892.268.223.592.335.971.335.694 0 1.221-.335 1.582-1.004.36-.67.541-1.697.541-3.081 0-.54-.042-1.056-.125-1.548a4.959 4.959 0 00-.361-1.297 2.402 2.402 0 00-.652-.906c-.268-.223-.597-.335-.985-.335-.685 0-1.207.335-1.568 1.004-.361.67-.541 1.697-.541 3.081zm6.81-4.88h4.343v.962h-3.303v2.997a7.92 7.92 0 01.472-.083 4.164 4.164 0 011.651.098c.343.083.639.232.888.445.259.214.463.507.611.879.148.362.222.822.222 1.38 0 .558-.074 1.041-.222 1.45-.139.4-.338.73-.597.99-.25.251-.55.441-.902.572-.351.12-.74.18-1.165.18-.13 0-.282-.004-.458-.013-.167 0-.342-.01-.527-.028a5.61 5.61 0 01-.541-.056 4.735 4.735 0 01-.472-.097v-9.676zm1.04 8.825c.102.037.255.06.458.07.213.01.412.014.597.014.499 0 .906-.163 1.221-.488.314-.325.472-.841.472-1.548 0-.446-.051-.804-.153-1.073-.092-.28-.222-.493-.388-.642a1.25 1.25 0 00-.597-.293 3.532 3.532 0 00-.722-.07c-.064 0-.138.005-.222.015l-.263.028a1.839 1.839 0 00-.236.041c-.074.02-.13.033-.167.042v3.904zm5.346-8.825h1.041v9.76h-1.041v-9.76zm7.179.962h-2.192a85.52 85.52 0 01-.292 4.684c-.12 1.255-.305 2.222-.554 2.9-.158.446-.352.772-.583.976a1.16 1.16 0 01-.791.307 1.49 1.49 0 01-.68-.14l.153-.961a.694.694 0 00.513-.028c.157-.075.305-.288.444-.642a5.73 5.73 0 00.278-1.004c.092-.427.171-.966.236-1.617.074-.65.134-1.422.18-2.314.046-.893.079-1.934.097-3.123h4.232v9.76h-1.041v-8.798zm3.024-.962h1.041v9.76h-1.041v-9.76zm7.845 2.216c0 .242-.028.484-.084.725-.055.242-.143.47-.263.684a2.277 2.277 0 01-.458.571 1.679 1.679 0 01-.652.377v.055c.222.047.434.126.638.237.203.103.384.251.541.447.157.186.282.418.375.697.092.27.138.595.138.976 0 .502-.078.938-.235 1.31-.158.363-.375.66-.653.893a2.583 2.583 0 01-.943.516 3.695 3.695 0 01-1.124.167h-.458a5.93 5.93 0 01-.541-.028 6.158 6.158 0 01-.582-.056 2.807 2.807 0 01-.514-.097v-9.607c.278-.056.601-.102.971-.14.38-.036.786-.055 1.221-.055.315 0 .629.032.944.098.314.055.596.167.846.334s.449.405.597.711c.157.298.236.693.236 1.185zm-2.637 6.693c.25 0 .481-.037.694-.112.213-.083.398-.204.555-.362a1.65 1.65 0 00.389-.572c.092-.232.138-.502.138-.809 0-.38-.06-.687-.18-.92a1.352 1.352 0 00-.444-.557 1.636 1.636 0 00-.638-.265 3.661 3.661 0 00-.722-.07h-.929v3.57c.055.018.125.032.208.041.092.01.19.019.291.028l.333.028h.305zm-.569-4.573c.13 0 .278-.005.444-.014.167-.01.306-.024.417-.042a2.12 2.12 0 00.874-.67c.25-.315.374-.701.374-1.157 0-.306-.041-.562-.124-.766a1.193 1.193 0 00-.347-.502 1.162 1.162 0 00-.5-.251 2.203 2.203 0 00-.61-.084c-.241 0-.458.01-.652.028a3.6 3.6 0 00-.444.042v3.416h.568z" fill="#303030"/></svg>