<svg width="859" height="165" viewBox="0 0 859 165" fill="none" xmlns="http://www.w3.org/2000/svg"><g opacity=".15" stroke="#BCB3B4"><path d="M.598 159.747L19.965 52.57v-.003A63.242 63.242 0 0138.398 17.93 63.442 63.442 0 0173.73.79a50.82 50.82 0 0121.357 2.344 50.765 50.765 0 0118.476 10.96 50.646 50.646 0 0112.273 17.611h0a50.57 50.57 0 013.869 21.103l-.001.008v1.304l-2.393 2.015-.016.014-.015.015-4.908 4.898-.015.015-.014.017-4.456 5.29-.013.015-.011.016-4.004 5.584-.013.017-.01.018-3.485 5.83-.01.017-.009.019-2.945 6.015-.01.02-.008.02-2.375 6.183-.008.02-.006.022-1.786 6.27-.007.024-.005.025-1.838 10.238a57.586 57.586 0 01-26.412 9.828c-2.65.278-5.317.359-7.979.242l9.46-51.423a10.522 10.522 0 004.808-4.74 10.496 10.496 0 00-2.8-12.895l-.313.39.313-.39a10.542 10.542 0 00-6.605-2.332h0-.574l-.014.001a10.54 10.54 0 00-6.298 2.542l.326.379-.326-.379a10.494 10.494 0 00-2.57 12.58 10.52 10.52 0 004.46 4.629l-9.257 50.834v.002l-.285 1.605v.002l-1.679 9.286h0l-5.903 32.849H.598z" fill="#BCB3B4"/><path d="M182.143 41.635l-8.718 50.68-.057-.037-.142-.092a3.945 3.945 0 00-.83-.428c-.657-.237-1.58-.342-3.402-.342h-.029l-.03.004a14.319 14.319 0 00-7.625 3.346 14.28 14.28 0 00-4.467 7.019l-.007.022-.004.023-10.721 58.939H97.009l10.692-60.153c2.794-15.564 12.236-31.396 25.646-42.789 13.281-11.282 30.417-18.182 48.796-16.192z" fill="#BCB3B4"/><path d="M715.877 41.039l-8.492 49.42a3.746 3.746 0 00-.487-.217c-.747-.272-1.751-.374-3.577-.374h-.058l-.058.007a14.751 14.751 0 00-7.9 3.46l.651.758-.651-.758a14.712 14.712 0 00-4.608 7.282l-.012.042-.008.043-10.647 58.528h-48.116l10.636-59.565h0c2.752-15.437 12.124-31.17 25.454-42.496 13.069-11.103 29.872-17.915 47.873-16.13zm77.574 118.182h-25.584l8.003-45.701h17.464c2.985 0 4.93-2.184 5.427-4.939.494-2.74-.384-6.127-2.933-9.07l-.014-.016-.015-.016a33.409 33.409 0 01-8.304-15.598h-.001a33.4 33.4 0 0110.522-32.416h0a33.534 33.534 0 0115.891-7.776l.031-.006.03-.007c3.643-.93 7.335-1.67 11.056-2.213h.001c3.397-.5 6.825-.752 10.259-.754 0 0 0 0 0 0h22.395l-7.787 44.535h-18.201c-2.03 0-4.171 1.517-4.892 3.854-.749 2.427.068 5.484 3.361 8.6l.001.001c7.437 7.025 12.264 19.416 11.561 31.093-.699 11.598-6.834 22.394-21.261 26.549l-.004.002a96.52 96.52 0 01-27.006 3.878z" stroke-width="2"/><path d="M218.705 109.547h0a10.54 10.54 0 003.604 5.986 10.571 10.571 0 0013.197.226l-.306-.396.306.396a10.544 10.544 0 003.806-5.859 10.524 10.524 0 00-.698-6.949h0a10.552 10.552 0 00-4.557-4.814l9.141-50.229a51.191 51.191 0 0131.163 17.61 51.004 51.004 0 0111.952 34.174v.019a63.586 63.586 0 01-15.351 42.199 63.808 63.808 0 01-39.429 21.586 50.843 50.843 0 01-21.358-2.349l-.158.475.158-.475a50.788 50.788 0 01-18.477-10.962 50.654 50.654 0 01-12.275-17.614 50.573 50.573 0 01-3.873-21.103v-.022a63.596 63.596 0 0115.361-42.189 63.817 63.817 0 0139.42-21.587c1.163-.122 2.3-.197 3.436-.246l-9.302 50.497a10.548 10.548 0 00-4.823 4.706 10.526 10.526 0 00-.937 6.92z" fill="#BCB3B4"/><path d="M415.703 159.25l19.27-106.588.001-.006a62.725 62.725 0 0118.268-34.368 62.931 62.931 0 0135.036-17.019 50.32 50.32 0 0121.136 2.322 50.245 50.245 0 0118.292 10.853h0a50.116 50.116 0 0112.149 17.438h0a50.05 50.05 0 013.827 20.893v.045a60.109 60.109 0 01-.62 9.43 63.925 63.925 0 00-2.028 1.742 98.311 98.311 0 00-5.697 5.42l-.007.008-.007.007a80.068 80.068 0 00-6.202 7.53l-.01.013-.009.013a72.657 72.657 0 00-3.104 4.966c-.988 1.742-1.8 3.514-2.597 5.322-.682 1.546-1.191 3.154-1.691 4.732l-.309.969c-.576 1.787-.882 3.638-1.181 5.444l-.11.663-.003.017-.002.016a75.769 75.769 0 00-.446 4.21 57.871 57.871 0 01-30.314 12.818 54.942 54.942 0 01-7.357.268l9.319-50.607a11.008 11.008 0 004.788-4.808 10.983 10.983 0 00.96-7.221 11 11 0 00-3.769-6.236 11.032 11.032 0 00-13.766-.22 11 11 0 00-3.966 6.113 10.978 10.978 0 00.728 7.248 11.01 11.01 0 004.431 4.844l-9.165 50.493v.001l-.893 4.898v.002l-1.08 5.995v.002l-5.762 32.338h-48.11z" stroke-width="2"/><path d="M424.869 53.229L405.325 159.75h-49.127l19.778-106.521h48.893zm-143.592 107.55l18.022-100.222h0c2.751-15.311 11.931-30.89 24.998-42.242C337.36 6.966 354.272-.128 372.474 1.46h.002c.266.022.873.046 1.508.07l.31.012c.452.018.891.036 1.23.055l-8.729 50.742a13.112 13.112 0 00-6.286-.99h0l-.013.002a14.252 14.252 0 00-7.639 3.34 14.213 14.213 0 00-4.456 7.037l-.006.02-.004.021-1.226 6.662-.11.597.606-.007 17.212-.17-8.567 48.265-17.565.106-.414.002-.075.408-7.846 43.147h-49.129z" fill="#BCB3B4"/><path d="M756.278 160.22c.586 0 3.047.03 4.44.048l8.471-47.375-.947.019-.095.002c-.937.019-1.871.037-2.069.037-2.816 0-4.855-.616-6.159-1.933-1.309-1.324-1.667-3.145-1.618-5.053.05-1.908.513-4.093 1.046-6.334.124-.52.252-1.045.38-1.573.434-1.78.877-3.598 1.205-5.426l.002-.01.002-.01.982-4.899.16-.798.814-.005 11.534-.073 8.379-47.263-10.573.106-1.223.012.231-1.201 6.387-33.179h-46.508l-16.753 87.114-.984-.176m42.896 67.97h.004l-.009 1v-1h.005zm0 0a46.322 46.322 0 01-20.619-5.041 46.231 46.231 0 01-16.193-13.706m0 0c-8.741-11.844-9.021-27.156-5.101-49.04l-.001.005-.982-.188m6.084 49.223l-.804.594m.804-.594h.001l-.805.594m-5.28-49.817l16.911-87.938-11.631 137.755m-5.28-49.817c-3.926 21.915-3.73 37.61 5.28 49.817m-83.593-46.089v-.004c-.281-24.221-10.727-40.59-26.45-49.479-15.539-8.784-36.373-10.337-57.946-4.691l27.462 51.533a11.058 11.058 0 016.495 1.089h0a11.035 11.035 0 015.056 5.265 11.017 11.017 0 01-3.378 13.348 11.059 11.059 0 01-13.782-.35l-.001-.001a11.023 11.023 0 01-3.717-6.28h0a11.008 11.008 0 01.792-6.743l-19.082-36.093a53.745 53.745 0 00-17.904 18.46 53.617 53.617 0 00-7.298 25.684c.355 31.521 25.042 51.534 55.515 51.534h43.737l9.536-51.602.965-11.67zm0 0a60.052 60.052 0 01-.965 11.667l.984.182a61.132 61.132 0 00.981-11.864l-1 .015z" stroke-width="2"/></g></svg>